<svg version="1.1" id="Layer_4" xmlns="http://www.w3.org/2000/svg" x="0" y="0" viewBox="0 0 3000 2500" xml:space="preserve" enable-background="new 0 0 3000 2500"><style>.st12{enable-background:new}.st13{fill:#c18c4d}.st14{fill:#efc49a}.st15{fill:#9b6b2c}.st16{fill:#d3a479}.st17{fill:#775124}.st19{fill:#efae52}.st20{fill:#ffd097}.st21{fill:#d3993c}.st22{opacity:.67}.st23,.st24{fill:#fff}.st24{opacity:.5}.st25{fill:#aa7322}.st32{fill:#c7c9c7}</style><defs><filter id="Adobe_OpacityMaskFilter" filterUnits="userSpaceOnUse" x="265.1" y="2034.5" width="518.9" height="182.9"><feFlood result="back" flood-color="#fff" flood-opacity="1"/><feBlend in="SourceGraphic" in2="back"/></filter></defs><mask maskUnits="userSpaceOnUse" x="265.1" y="2034.5" width="518.9" height="182.9" id="SVGID_1_"><g filter="url(#Adobe_OpacityMaskFilter)"><defs><filter id="Adobe_OpacityMaskFilter_1_" filterUnits="userSpaceOnUse" x="265.1" y="2034.5" width="518.9" height="182.9"><feFlood result="back" flood-color="#fff" flood-opacity="1"/><feBlend in="SourceGraphic" in2="back"/></filter></defs><linearGradient id="SVGID_2_" gradientUnits="userSpaceOnUse" x1="449.78" y1="2068.334" x2="646.698" y2="2219.888"><stop offset="0" stop-color="#fff"/><stop offset="1" stop-color="#1a1a1a"/></linearGradient><ellipse cx="524.6" cy="2125.9" rx="259.4" ry="91.4" mask="url(#SVGID_1_)" fill="url(#SVGID_2_)"/></g></mask><linearGradient id="SVGID_3_" gradientUnits="userSpaceOnUse" x1="449.78" y1="2068.334" x2="646.698" y2="2219.888"><stop offset="0" stop-color="#303030"/><stop offset="1" stop-color="#231a1a"/></linearGradient><ellipse cx="524.6" cy="2125.9" rx="259.4" ry="91.4" opacity=".26" fill="url(#SVGID_3_)"/><defs><filter id="Adobe_OpacityMaskFilter_2_" filterUnits="userSpaceOnUse" x="636.6" y="1484.6" width="977.2" height="459.7"><feFlood result="back" flood-color="#fff" flood-opacity="1"/><feBlend in="SourceGraphic" in2="back"/></filter></defs><mask maskUnits="userSpaceOnUse" x="636.6" y="1484.6" width="977.2" height="459.7" id="SVGID_4_"><g filter="url(#Adobe_OpacityMaskFilter_2_)"><defs><filter id="Adobe_OpacityMaskFilter_3_" filterUnits="userSpaceOnUse" x="636.6" y="1484.6" width="977.2" height="459.7"><feFlood result="back" flood-color="#fff" flood-opacity="1"/><feBlend in="SourceGraphic" in2="back"/></filter></defs><linearGradient id="SVGID_5_" gradientUnits="userSpaceOnUse" x1="996.629" y1="1665.392" x2="1335.237" y2="1925.996"><stop offset="0" stop-color="#fff"/><stop offset="1" stop-color="#1a1a1a"/></linearGradient><path mask="url(#SVGID_4_)" fill="url(#SVGID_5_)" d="M1196.8 1484.6l417 245.6-267.2 186.1-418.8 28-291.2-145.8z"/></g></mask><linearGradient id="SVGID_6_" gradientUnits="userSpaceOnUse" x1="996.629" y1="1665.392" x2="1335.237" y2="1925.996"><stop offset="0" stop-color="#303030"/><stop offset="1" stop-color="#231a1a"/></linearGradient><path opacity=".26" fill="url(#SVGID_6_)" d="M1196.8 1484.6l417 245.6-267.2 186.1-418.8 28-291.2-145.8z"/><defs><filter id="Adobe_OpacityMaskFilter_4_" filterUnits="userSpaceOnUse" x="945.4" y="956.9" width="1809.2" height="694.5"><feFlood result="back" flood-color="#fff" flood-opacity="1"/><feBlend in="SourceGraphic" in2="back"/></filter></defs><mask maskUnits="userSpaceOnUse" x="945.4" y="956.9" width="1809.2" height="694.5" id="SVGID_7_"><g filter="url(#Adobe_OpacityMaskFilter_4_)"><defs><filter id="Adobe_OpacityMaskFilter_5_" filterUnits="userSpaceOnUse" x="945.4" y="956.9" width="1809.2" height="694.5"><feFlood result="back" flood-color="#fff" flood-opacity="1"/><feBlend in="SourceGraphic" in2="back"/></filter></defs><linearGradient id="SVGID_8_" gradientUnits="userSpaceOnUse" x1="1590.715" y1="966.901" x2="2273.589" y2="1492.464"><stop offset="0" stop-color="#fff"/><stop offset="1" stop-color="#1a1a1a"/></linearGradient><path mask="url(#SVGID_7_)" fill="url(#SVGID_8_)" d="M977.3 1105l1360.3-148.1 158.3 78.4 258.7 167.3-744.4 448.8-286.9-57.6-777.9-463.4z"/></g></mask><linearGradient id="SVGID_9_" gradientUnits="userSpaceOnUse" x1="1590.715" y1="966.901" x2="2273.589" y2="1492.464"><stop offset="0" stop-color="#303030"/><stop offset="1" stop-color="#231a1a"/></linearGradient><path opacity=".26" fill="url(#SVGID_9_)" d="M977.3 1105l1360.3-148.1 158.3 78.4 258.7 167.3-744.4 448.8-286.9-57.6-777.9-463.4z"/><g class="st12"><path class="st13" d="M1770.1 1565.5l102.6-60.9.2-26.6-102.7 60.9z"/><path class="st14" d="M1770.2 1538.9l102.7-60.9-792.7-460.5-102.7 60.9z"/><path class="st15" d="M977.5 1078.4l-.2 26.6 792.8 460.5.1-26.6z"/></g><g class="st12"><path class="st13" d="M2393.1 1209.8l102.7-60.9.1-26.6-102.7 60.9z"/><path class="st14" d="M2393.2 1183.2l102.7-60.9-792.7-460.5-102.7 60.9z"/><path class="st15" d="M1600.5 722.7l-.2 26.6 792.8 460.5.1-26.6z"/></g><g class="st12"><path class="st13" d="M1771.1 1543.8l-57.6-34.3-.2-126.2 57.6 34.3z"/><path class="st16" d="M1770.9 1417.6l-57.6-34.3 725-419.5 57.6 34.3z"/><path class="st17" d="M2495.9 998.1l.2 126.2-725 419.5-.2-126.2z"/></g><g class="st12"><path class="st13" d="M1403.1 1328.7l-57.6-34.3-.2-126.1 57.7 34.3z"/><path class="st16" d="M1403 1202.6l-57.7-34.3 725-419.5 57.6 34.3z"/><path class="st17" d="M2127.9 783.1l.2 126.1-725 419.5-.1-126.1z"/></g><g class="st12"><path class="st13" d="M1035.1 1113.6l-57.6-34.2-.2-126.2 57.7 34.3z"/><path class="st16" d="M1035 987.5l-57.7-34.3 725-419.5 57.6 34.3z"/><path class="st17" d="M1759.9 568l.2 126.2-725 419.4-.1-126.1z"/></g><g class="st12"><path class="st13" d="M1770.1 1417.6l102.6-60.9.2-26.5-102.7 60.8z"/><path class="st14" d="M1770.2 1391l102.7-60.8-792.7-460.5-102.7 60.9z"/><path class="st15" d="M977.5 930.6l-.2 26.6 792.8 460.4.1-26.6z"/></g><g class="st12"><path class="st13" d="M1928.4 1328.7l102.6-60.9.2-26.6-102.7 60.9z"/><path class="st14" d="M1928.5 1302.1l102.7-60.9-792.7-460.4-102.7 60.9z"/><path class="st15" d="M1135.8 841.7l-.2 26.6 792.8 460.4.1-26.6z"/></g><g class="st12"><path class="st13" d="M2086.6 1239.8l102.7-60.9.2-26.6-102.7 60.9z"/><path class="st14" d="M2086.8 1213.2l102.7-60.9-792.7-460.4-102.7 60.9z"/><path class="st15" d="M1294.1 752.8l-.2 26.5 792.7 460.5.2-26.6z"/></g><g class="st12"><path class="st13" d="M2234.8 1150.9l102.7-60.9.1-26.6-102.7 60.9z"/><path class="st14" d="M2234.9 1124.3l102.7-60.9-792.7-460.5-102.7 60.9z"/><path class="st15" d="M1442.2 663.8l-.1 26.6 792.7 460.5.1-26.6z"/></g><g class="st12"><path class="st13" d="M2393.1 1061.9l102.7-60.8.1-26.6-102.7 60.8z"/><path class="st14" d="M2393.2 1035.3l102.7-60.8L1703.2 514l-102.7 60.9z"/><path class="st15" d="M1600.5 574.9l-.2 26.6 792.8 460.4.1-26.6z"/></g><linearGradient id="SVGID_10_" gradientUnits="userSpaceOnUse" x1="13906.684" y1="1109.365" x2="15009.288" y2="1109.365" gradientTransform="matrix(-1 0 0 1 16144.831 0)"><stop offset="0" stop-color="#303030"/><stop offset="1" stop-color="#231a1a"/></linearGradient><path opacity=".26" fill="url(#SVGID_10_)" d="M2217.3 980l-796.2-95.6-285.6 150 511.8 299.9L2238.1 992z"/><g class="st12"><path class="st19" d="M1771.8 974.3l210.4-125.4V628.8l-210.4 125.3z"/><path class="st20" d="M1771.8 754.1l210.4-125.3L1767 505.7l-210.4 125.4z"/><path class="st21" d="M1556.6 631.1v220.1l215.2 123.1V754.1z"/></g><g class="st22"><path class="st23" d="M1855.2 705.6l43.6-26-215.2-123-43.6 25.9z"/></g><path class="st24" d="M1898.8 743.8l-43.6 26v-64.2l43.6-26zm-331.9-26l43.7 26v-64.2l-43.7-26z"/><path class="st23" d="M1574.2 679.2l29.2 17.1c1 .6 1.9.3 1.9-.8 0-1-.8-2.4-1.9-3l-29.2-17.1c-1-.6-1.9-.3-1.9.8 0 1 .8 2.4 1.9 3zm0 12.8l29.2 17.1c1 .6 1.9.3 1.9-.8 0-1-.8-2.4-1.9-3l-29.2-17.1c-1-.6-1.9-.3-1.9.8s.8 2.4 1.9 3zm0 12.8l29.2 17.1c1 .6 1.9.3 1.9-.8 0-1-.8-2.4-1.9-3l-29.2-17.1c-1-.6-1.9-.3-1.9.8s.8 2.4 1.9 3z"/><g class="st12"><path class="st25" d="M1989.3 1099.8l210.4-125.3V754.3l-210.4 125.3z"/><path class="st20" d="M1989.3 879.6l210.4-125.3-215.2-123-210.4 125.3z"/><path class="st21" d="M1774.1 756.6v220.2l215.2 123V879.6z"/></g><g class="st22"><path class="st23" d="M2072.7 831.1l43.6-26-215.2-123-43.6 26z"/></g><path class="st24" d="M2116.3 869.3l-43.6 26v-64.2l43.6-26zm-331.9-26l43.7 26v-64.2l-43.7-26z"/><path class="st23" d="M1791.7 804.7l29.2 17.1c1 .6 1.9.3 1.9-.8 0-1-.8-2.4-1.9-3l-29.2-17.1c-1-.6-1.9-.3-1.9.8s.8 2.4 1.9 3zm0 12.9l29.2 17.1c1 .6 1.9.3 1.9-.8 0-1-.8-2.4-1.9-3l-29.2-17.1c-1-.6-1.9-.3-1.9.8 0 1 .8 2.3 1.9 3zm0 12.8l29.2 17.1c1 .6 1.9.3 1.9-.8 0-1-.8-2.4-1.9-3l-29.2-17.1c-1-.6-1.9-.3-1.9.8 0 1 .8 2.4 1.9 3z"/><g class="st12"><path class="st19" d="M1557.8 1102.1l210.4-125.4V756.6l-210.4 125.3z"/><path class="st20" d="M1557.8 881.9l210.4-125.3L1553 633.5l-210.4 125.4z"/><path class="st21" d="M1342.6 758.9V979l215.2 123.1V881.9z"/></g><g class="st22"><path class="st23" d="M1641.2 833.4l43.6-26-215.1-123-43.7 25.9z"/></g><path class="st24" d="M1684.8 871.6l-43.6 26v-64.2l43.6-26zm-331.8-26l43.6 26v-64.2l-43.6-26z"/><path class="st23" d="M1360.2 807l29.2 17.1c1 .6 1.9.3 1.9-.8 0-1-.8-2.4-1.9-3l-29.2-17.1c-1-.6-1.9-.3-1.9.8s.9 2.4 1.9 3zm0 12.8l29.2 17.1c1 .6 1.9.3 1.9-.8 0-1-.8-2.4-1.9-3l-29.2-17.1c-1-.6-1.9-.3-1.9.8s.9 2.4 1.9 3zm0 12.8l29.2 17.1c1 .6 1.9.3 1.9-.8 0-1-.8-2.4-1.9-3l-29.2-17.1c-1-.6-1.9-.3-1.9.8s.9 2.4 1.9 3z"/><g class="st12"><path class="st25" d="M1771.8 751.2l210.4-125.3V405.7l-210.4 125.4z"/><path class="st20" d="M1771.8 531.1l210.4-125.4-215.2-123L1556.6 408z"/><path class="st21" d="M1556.6 408v220.2l215.2 123V531.1z"/></g><g class="st22"><path class="st23" d="M1855.2 482.6l43.6-26-215.2-123.1-43.6 26z"/></g><path class="st24" d="M1898.8 520.8l-43.6 26v-64.2l43.6-26zm-331.9-26l43.7 26v-64.2l-43.7-26z"/><path class="st23" d="M1574.2 456.2l29.2 17.1c1 .6 1.9.3 1.9-.8 0-1-.8-2.4-1.9-3l-29.2-17.1c-1-.6-1.9-.3-1.9.8 0 1 .8 2.4 1.9 3zm0 12.8l29.2 17.1c1 .6 1.9.3 1.9-.8 0-1-.8-2.4-1.9-3l-29.2-17.1c-1-.6-1.9-.3-1.9.8 0 1 .8 2.4 1.9 3zm0 12.8l29.2 17.1c1 .6 1.9.3 1.9-.8 0-1-.8-2.4-1.9-3l-29.2-17.1c-1-.6-1.9-.3-1.9.8s.8 2.4 1.9 3z"/><g class="st12"><path class="st25" d="M1557.8 879l210.4-125.3V533.5l-210.4 125.4z"/><path class="st20" d="M1557.8 658.9l210.4-125.4-215.2-123-210.4 125.3z"/><path class="st21" d="M1342.6 535.8V756l215.2 123V658.9z"/></g><g class="st22"><path class="st23" d="M1641.2 610.4l43.6-26-215.1-123.1-43.7 26z"/></g><path class="st24" d="M1684.8 648.6l-43.6 26v-64.2l43.6-26zm-331.8-26l43.6 26v-64.2l-43.6-26z"/><path class="st23" d="M1360.2 584l29.2 17.1c1 .6 1.9.3 1.9-.8 0-1-.8-2.4-1.9-3l-29.2-17.1c-1-.6-1.9-.3-1.9.8 0 1 .9 2.4 1.9 3zm0 12.8l29.2 17.1c1 .6 1.9.3 1.9-.8 0-1-.8-2.4-1.9-3l-29.2-17.1c-1-.6-1.9-.3-1.9.8 0 1 .9 2.4 1.9 3zm0 12.8l29.2 17.1c1 .6 1.9.3 1.9-.8 0-1-.8-2.4-1.9-3l-29.2-17.1c-1-.6-1.9-.3-1.9.8s.9 2.4 1.9 3z"/><g class="st12"><path class="st25" d="M1775.3 1227.6l210.4-125.3V882.1l-210.4 125.3z"/><path class="st20" d="M1775.3 1007.4l210.4-125.3-215.2-123-210.4 125.3z"/><path class="st21" d="M1560.1 884.4v220.2l215.2 123v-220.2z"/></g><g class="st22"><path class="st23" d="M1858.7 958.9l43.6-26-215.2-123-43.6 26z"/></g><path class="st24" d="M1902.3 997.1l-43.6 26v-64.2l43.6-26zm-331.8-26l43.6 26v-64.2l-43.6-26z"/><path class="st23" d="M1577.7 932.5l29.2 17.1c1 .6 1.9.3 1.9-.8 0-1-.8-2.4-1.9-3l-29.2-17.1c-1-.6-1.9-.3-1.9.8s.9 2.4 1.9 3zm0 12.9l29.2 17.1c1 .6 1.9.3 1.9-.8 0-1-.8-2.4-1.9-3l-29.2-17.1c-1-.6-1.9-.3-1.9.8 0 1 .9 2.3 1.9 3zm0 12.8l29.2 17.1c1 .6 1.9.3 1.9-.8 0-1-.8-2.4-1.9-3l-29.2-17.1c-1-.6-1.9-.3-1.9.8 0 1 .9 2.4 1.9 3z"/><g class="st12"><path class="st25" d="M1843.1 967.8l210.4-125.4V622.3l-210.4 125.3z"/><path class="st20" d="M1843.1 747.6l210.4-125.3-215.2-123.1-210.4 125.4z"/><path class="st21" d="M1627.9 624.6v220.1l215.2 123.1V747.6z"/></g><g class="st22"><path class="st23" d="M1926.5 699.1l43.6-26-215.2-123-43.6 26z"/></g><path class="st24" d="M1970.1 737.3l-43.6 26v-64.2l43.6-26zm-331.8-26l43.6 26v-64.2l-43.6-26z"/><path class="st23" d="M1645.5 672.7l29.2 17.1c1 .6 1.9.3 1.9-.8 0-1-.8-2.4-1.9-3l-29.2-17.1c-1-.6-1.9-.3-1.9.8s.9 2.4 1.9 3zm0 12.8l29.2 17.1c1 .6 1.9.3 1.9-.8 0-1-.8-2.4-1.9-3l-29.2-17.1c-1-.6-1.9-.3-1.9.8s.9 2.4 1.9 3zm0 12.9l29.2 17.1c1 .6 1.9.3 1.9-.8 0-1-.8-2.4-1.9-3l-29.2-17.1c-1-.6-1.9-.3-1.9.8 0 1 .9 2.3 1.9 3z"/><linearGradient id="SVGID_11_" gradientUnits="userSpaceOnUse" x1="1403.687" y1="1087.363" x2="1306.461" y2="694.988"><stop offset="0" stop-color="#303030"/><stop offset="1" stop-color="#4c4a4b"/></linearGradient><path d="M1196 509.7V1012c0 8 4.3 15.4 11.3 19.4l263.5 150.7c7.9 4.5 17.8-1.2 17.8-10.3V667.6c0-8.9-4.7-17-12.4-21.4l-259.6-148.5c-9.2-5.2-20.6 1.4-20.6 12z" fill="url(#SVGID_11_)"/><linearGradient id="SVGID_12_" gradientUnits="userSpaceOnUse" x1="1187.312" y1="844.177" x2="1479.909" y2="844.177"><stop offset="0" stop-color="#303030"/><stop offset="1" stop-color="#4c4a4b"/></linearGradient><path d="M1187.3 514v502.3c0 8 4.3 15.4 11.3 19.4l263.5 150.7c7.9 4.5 17.8-1.2 17.8-10.3V672c0-8.9-4.7-17-12.4-21.4l-259.6-148.5c-9.2-5.2-20.6 1.4-20.6 11.9z" fill="url(#SVGID_12_)"/><path class="st23" d="M1205.1 1024.5c-2.9-1.7-4.7-4.8-4.7-8.1V514c0-.7.7-.7.7-.7s.1 0 .3.1L1461 661.9c3.6 2.1 5.9 5.9 5.9 10.1v502.2l-261.8-149.7z"/><linearGradient id="SVGID_13_" gradientUnits="userSpaceOnUse" x1="1280.682" y1="542.625" x2="1311.605" y2="542.625"><stop offset="0" stop-color="#a0570e"/><stop offset="1" stop-color="#f79c45"/></linearGradient><path d="M1299 537.1c-.1-.1-.3-.2-.4-.2-.2-.1-.3-.2-.5-.3-.2-.1-.3-.2-.5-.2-.2-.1-.3-.1-.5-.2s-.3-.1-.5-.2h-.1c-.1 0-.2-.1-.4-.1-.2-.1-.3-.1-.5-.1s-.3-.1-.5-.1-.4-.1-.5-.1h-1.7c-.2 0-.5.1-.7.1-.3.1-.6.1-.8.2-.4.1-.7.3-1 .5l-9.4 5.4c.6-.3 1.2-.6 1.8-.7.7-.1 1.4-.2 2.1-.1h.1c.7.1 1.5.2 2.3.5.8.3 1.7.7 2.5 1.2l12.7 7.3 9.4-5.4-12.9-7.5z" fill="url(#SVGID_13_)"/><linearGradient id="SVGID_14_" gradientUnits="userSpaceOnUse" x1="1309.301" y1="558.468" x2="1338.929" y2="558.468"><stop offset="0" stop-color="#a0570e"/><stop offset="1" stop-color="#f79c45"/></linearGradient><path d="M1337.2 570.5c-.6.1-1.3.2-2 .1h-.1c-.7-.1-1.4-.2-2.2-.5-.8-.3-1.6-.6-2.4-1.1-.8-.5-1.6-1-2.4-1.6h-.1c-.8-.6-1.5-1.3-2.2-2-.7-.7-1.4-1.6-2-2.4-.6-.8-1.2-1.7-1.7-2.6 0 0 0-.1-.1-.1-.5-.9-1-1.8-1.4-2.8-.4-1-.8-1.9-1.1-2.9-.3-1-.5-2-.7-2.9-.2-1-.2-1.9-.2-2.9 0-.9.1-1.8.2-2.6v-.1c.2-.8.4-1.5.7-2.1.2-.5.6-1 .9-1.4.1-.1.2-.3.3-.4.4-.4.8-.8 1.3-1.1l-9.4 5.4c-.5.3-.9.7-1.3 1.1-.1.1-.2.3-.3.4-.1.2-.3.3-.4.5-.2.3-.3.5-.4.8l-.3.6c-.1.2-.1.4-.2.6-.1.2-.1.4-.2.6 0 .1 0 .2-.1.3v.1c0 .1 0 .2-.1.3 0 .2-.1.4-.1.6 0 .2 0 .4-.1.6v2.9c0 .2 0 .4.1.6 0 .2.1.4.1.6 0 .2.1.4.1.6 0 .2.1.4.1.6 0 .2.1.4.1.6.1.2.1.4.2.6 0 .2.1.3.1.5v.1c.1.2.1.4.2.6.1.2.1.4.2.6.1.2.1.4.2.6s.2.4.2.6c.1.1.1.3.2.4v.1l.3.6.3.6c.1.2.2.5.4.7.1.3.3.5.4.8 0 0 0 .1.1.1 0 .1.1.1.1.2.3.5.6.9.9 1.4.2.4.5.7.8 1.1.2.2.3.5.5.7.1.2.3.4.5.6.2.2.3.4.5.5l.5.5.1.1.4.4.5.5.5.5.5.5c.1.1.2.1.3.2h.1l.2.2c.2.1.3.3.5.4.2.1.3.2.5.4.2.1.3.2.5.3.2.1.3.2.5.3 0 0 .1 0 .1.1.1.1.3.1.4.2.2.1.3.2.5.3.2.1.3.2.5.2.2.1.3.1.5.2s.3.1.5.2h.1c.1 0 .2.1.3.1.2 0 .3.1.5.1s.3.1.5.1.3.1.5.1h1.8c.2 0 .5-.1.7-.1.3-.1.5-.1.8-.2.3-.1.7-.3 1-.4l9.4-5.4c-.5 0-1.1.2-1.7.4z" fill="url(#SVGID_14_)"/><linearGradient id="SVGID_15_" gradientUnits="userSpaceOnUse" x1="1307.747" y1="577.7" x2="1374.579" y2="577.7"><stop offset="0" stop-color="#a0570e"/><stop offset="1" stop-color="#f79c45"/></linearGradient><path d="M1374.6 594.6v-1.2c0-.2 0-.4-.1-.6 0-.2-.1-.4-.1-.6 0-.2-.1-.4-.1-.6 0-.2-.1-.4-.1-.7 0-.2-.1-.4-.2-.7-.1-.2-.1-.4-.2-.7 0-.2-.1-.3-.2-.5v-.1c-.1-.2-.1-.4-.2-.6-.1-.2-.1-.4-.2-.6-.1-.2-.2-.4-.2-.6-.1-.2-.2-.4-.2-.6-.1-.2-.1-.3-.2-.5v-.1l-.3-.6c-.1-.2-.2-.4-.3-.7-.1-.3-.3-.5-.4-.8-.1-.3-.3-.5-.4-.8l-.1-.1c0-.1-.1-.1-.1-.2l-.9-1.5c-.3-.4-.5-.7-.8-1.1-.2-.2-.4-.5-.6-.7-.2-.2-.3-.4-.5-.6-.2-.2-.3-.4-.5-.6-.2-.2-.3-.4-.5-.5l-.1-.1-.4-.4c-.2-.2-.3-.4-.5-.5-.2-.2-.4-.3-.6-.5-.2-.2-.4-.3-.6-.5-.1-.1-.2-.1-.3-.2l-.1-.1-.2-.2c-.2-.1-.4-.3-.5-.4-.2-.1-.4-.3-.5-.4-.2-.1-.4-.2-.5-.4-.2-.1-.4-.2-.5-.3 0 0-.1 0-.1-.1l-12.7-7.3v-2.7c0-.3-.1-.6-.1-.9 0-.3-.1-.6-.1-.9 0-.3-.1-.6-.2-.9-.1-.3-.1-.7-.2-1 0-.1-.1-.2-.1-.3 0-.1 0-.1-.1-.2 0-.1-.1-.3-.1-.4-.1-.3-.2-.7-.3-1-.1-.2-.1-.5-.2-.7v-.2c-.1-.3-.2-.7-.3-1-.1-.3-.2-.6-.3-1 0-.1 0-.1-.1-.2 0 0 0-.1-.1-.1-.1-.2-.1-.4-.2-.6-.1-.3-.2-.6-.4-.9-.1-.2-.2-.4-.3-.7v-.1s0-.1-.1-.1c-.1-.3-.3-.6-.4-.9-.2-.3-.3-.7-.5-1 0-.1-.1-.1-.1-.2s-.1-.1-.1-.2c-.1-.3-.3-.5-.4-.8-.2-.3-.4-.6-.5-1-.1-.2-.2-.3-.3-.5 0-.1-.1-.1-.1-.2-.2-.3-.3-.5-.5-.8-.3-.4-.5-.8-.8-1.2 0-.1-.1-.1-.1-.2-.4-.6-.8-1.1-1.2-1.7-.3-.4-.6-.7-.8-1.1-.2-.3-.5-.6-.7-.9-.2-.3-.5-.6-.7-.9-.2-.3-.5-.5-.7-.8l-.1-.1-.1-.1c-.2-.2-.3-.4-.5-.5l-.8-.8-.2-.2-.2-.2c-.1-.1-.3-.2-.4-.4-.3-.3-.6-.5-.8-.7-.1-.1-.2-.2-.4-.3l-.2-.2c-.1-.1-.2-.2-.3-.2-.3-.2-.6-.4-.8-.6-.2-.1-.4-.3-.6-.4l-.1-.1s-.1 0-.1-.1c-.3-.2-.5-.4-.8-.5-.3-.2-.5-.3-.8-.5-.1 0-.1-.1-.2-.1l-.6-.3c-.3-.1-.5-.3-.8-.4-.2-.1-.3-.2-.5-.2 0 0-.1 0-.1-.1 0 0-.1 0-.1-.1-.3-.1-.5-.2-.8-.3-.3-.1-.5-.2-.8-.3h-.2c-.2-.1-.3-.1-.5-.2-.3-.1-.5-.2-.8-.2-.1 0-.2-.1-.4-.1h-.2c-.1 0-.2 0-.2-.1-.3-.1-.6-.1-.8-.1-.2 0-.3 0-.5-.1h-2.3c-.4 0-.7.1-1.1.2-.1 0-.1 0-.2.1-.4.1-.7.2-1.1.3h-.1c-.5.2-1 .4-1.5.7l-9.4 5.4c.5-.3.9-.5 1.5-.7l1.2-.3c.1 0 .1 0 .2-.1.5-.1.9-.1 1.4-.2h1.9c.5 0 1 .1 1.6.2h.2c.5.1 1.1.3 1.7.5h.1c.6.2 1.2.4 1.8.7 0 0 .1 0 .1.1.6.3 1.2.6 1.9 1 .6.4 1.3.8 1.9 1.2l.1.1c.6.4 1.2.8 1.7 1.3l.2.2c.5.4 1.1.9 1.6 1.4l.2.2c.5.5 1.1 1 1.6 1.6l.1.1c.5.6 1.1 1.2 1.6 1.8 1 1.2 2 2.5 2.9 3.9.3.4.5.8.8 1.2.2.3.4.7.6 1 .1.2.2.3.3.5.3.6.7 1.2 1 1.8 0 .1.1.1.1.2.4.7.7 1.5 1 2.2v.1c.3.7.6 1.5.9 2.2v.1c.3.8.5 1.5.8 2.3v.1c.2.7.4 1.5.6 2.2v.2c.2.7.3 1.5.4 2.2.1.7.2 1.5.3 2.2v.2c.1.7.1 1.5.1 2.2l12.7 7.3c.9.5 1.7 1.1 2.5 1.7l.1.1c.8.6 1.6 1.4 2.3 2.1.7.8 1.4 1.6 2.1 2.5.6.9 1.3 1.8 1.8 2.8 0 0 0 .1.1.1.5.9 1 1.9 1.5 2.9.4 1 .8 2 1.1 3.1.3 1 .6 2.1.7 3.1.2 1 .2 2 .2 3l-.1 23.8 9.4-5.4.1-23.8c-.4-.4-.4-.6-.4-.8z" fill="url(#SVGID_15_)"/><linearGradient id="SVGID_16_" gradientUnits="userSpaceOnUse" x1="1276.964" y1="580.424" x2="1365.204" y2="580.424"><stop offset="0" stop-color="#f9bf1e"/><stop offset="1" stop-color="#f79c45"/></linearGradient><path d="M1352.7 579c6.9 4 12.5 13.7 12.5 21.6l-.1 23.8-88.2-50.9.1-23.8c0-7.9 5.6-11.1 12.5-7.1l12.7 7.3c0-12 8.5-16.8 19-10.8 10.4 6 18.9 20.7 18.9 32.7l12.6 7.2zm-31.6-4.6c6.5 3.8 11.9.7 11.9-6.8s-5.3-16.7-11.8-20.5c-6.6-3.8-11.9-.7-11.9 6.8 0 7.6 5.3 16.7 11.8 20.5" fill="url(#SVGID_16_)"/><path class="st32" d="M1440.6 801.9l-156-88.8c-2.2-1.2-3.9-4.5-3.9-7.2 0-2.8 1.8-4 3.9-2.8l156 88.8c2.2 1.2 3.9 4.5 3.9 7.2 0 2.8-1.8 4.1-3.9 2.8zm-20.3-72.2l-156-88.8c-2.2-1.2-3.9-4.5-3.9-7.2 0-2.8 1.8-4 3.9-2.8l156 88.8c2.2 1.2 3.9 4.5 3.9 7.2.1 2.7-1.7 4-3.9 2.8zm20.3 94.5l-156-88.8c-2.2-1.2-3.9-4.5-3.9-7.2 0-2.8 1.8-4 3.9-2.8l156 88.8c2.2 1.2 3.9 4.5 3.9 7.2 0 2.8-1.8 4-3.9 2.8zm-45.6-3.6l-110.5-62.9c-2.2-1.2-3.9-4.5-3.9-7.2 0-2.8 1.8-4 3.9-2.8l110.5 62.9c2.2 1.2 3.9 4.5 3.9 7.2 0 2.8-1.7 4-3.9 2.8z"/><linearGradient id="SVGID_17_" gradientUnits="userSpaceOnUse" x1="1645.22" y1="4560.03" x2="1688.731" y2="4560.03" gradientTransform="matrix(1 .5693 .0003 1.0395 -423.9 -4981.6)"><stop offset="0" stop-color="#82fb7c"/><stop offset="1" stop-color="#0ba2b3"/></linearGradient><path d="M1259.8 744.1l-30.7-17.5c-3.5-2-6.4-7.3-6.4-11.8v-39.3c0-4.5 2.9-6.5 6.4-4.5l30.7 17.5c3.5 2 6.4 7.3 6.4 11.8v39.3c0 4.5-2.9 6.5-6.4 4.5z" fill="url(#SVGID_17_)"/><path class="st23" d="M1231.6 691.3l8.4 24.5 20.6-3.6-3.7-9-14.1 3.1-6.5-17.3z"/><path class="st32" d="M1440.6 881.5l-156-88.8c-2.2-1.2-3.9-4.5-3.9-7.2 0-2.8 1.8-4 3.9-2.8l156 88.8c2.2 1.2 3.9 4.5 3.9 7.2 0 2.8-1.8 4-3.9 2.8zm0 22.3l-156-88.8c-2.2-1.2-3.9-4.5-3.9-7.2 0-2.8 1.8-4 3.9-2.8l156 88.8c2.2 1.2 3.9 4.5 3.9 7.2 0 2.8-1.8 4-3.9 2.8zm-45.5-3.7l-110.5-62.9c-2.2-1.2-3.9-4.5-3.9-7.2 0-2.8 1.8-4 3.9-2.8l110.5 62.9c2.2 1.2 3.9 4.5 3.9 7.2 0 2.8-1.8 4.1-3.9 2.8z"/><linearGradient id="SVGID_18_" gradientUnits="userSpaceOnUse" x1="1645.216" y1="4636.578" x2="1688.727" y2="4636.578" gradientTransform="matrix(1 .5693 .0003 1.0395 -423.9 -4981.6)"><stop offset="0" stop-color="#82fb7c"/><stop offset="1" stop-color="#0ba2b3"/></linearGradient><path d="M1259.8 823.7l-30.7-17.5c-3.5-2-6.4-7.3-6.4-11.8v-39.3c0-4.5 2.9-6.5 6.4-4.5l30.7 17.5c3.5 2 6.4 7.3 6.4 11.8v39.3c0 4.5-2.8 6.5-6.4 4.5z" fill="url(#SVGID_18_)"/><path class="st23" d="M1231.6 770.9l8.4 24.5 20.6-3.7-3.7-8.9-14.1 3-6.4-17.2z"/><path class="st32" d="M1440.6 961.1l-156-88.8c-2.2-1.2-3.9-4.5-3.9-7.2 0-2.8 1.8-4 3.9-2.8l156 88.8c2.2 1.2 3.9 4.5 3.9 7.2s-1.7 4-3.9 2.8zm0 22.3l-156-88.8c-2.2-1.2-3.9-4.5-3.9-7.2 0-2.8 1.8-4 3.9-2.8l156 88.8c2.2 1.2 3.9 4.5 3.9 7.2s-1.7 4-3.9 2.8zm-45.5-3.7l-110.5-62.9c-2.2-1.2-3.9-4.5-3.9-7.2 0-2.8 1.8-4 3.9-2.8l110.5 62.9c2.2 1.2 3.9 4.5 3.9 7.2 0 2.8-1.8 4-3.9 2.8z"/><linearGradient id="SVGID_19_" gradientUnits="userSpaceOnUse" x1="1645.212" y1="4713.126" x2="1688.724" y2="4713.126" gradientTransform="matrix(1 .5693 .0003 1.0395 -423.9 -4981.6)"><stop offset="0" stop-color="#82fb7c"/><stop offset="1" stop-color="#0ba2b3"/></linearGradient><path d="M1259.9 903.3l-30.7-17.5c-3.5-2-6.4-7.3-6.4-11.8v-39.3c0-4.5 2.9-6.5 6.4-4.5l30.7 17.5c3.5 2 6.4 7.3 6.4 11.8v39.3c-.1 4.5-2.9 6.5-6.4 4.5z" fill="url(#SVGID_19_)"/><path class="st23" d="M1231.7 850.4l8.3 24.5 20.6-3.6-3.7-8.9-14.1 3-6.4-17.2z"/><path class="st32" d="M1440.6 1040.6l-156-88.8c-2.2-1.2-3.9-4.5-3.9-7.2 0-2.8 1.8-4 3.9-2.8l156 88.8c2.2 1.2 3.9 4.5 3.9 7.2 0 2.8-1.7 4.1-3.9 2.8zm0 22.3l-156-88.8c-2.2-1.2-3.9-4.5-3.9-7.2 0-2.8 1.8-4 3.9-2.8l156 88.8c2.2 1.2 3.9 4.5 3.9 7.2 0 2.8-1.7 4.1-3.9 2.8zm-45.5-3.6l-110.5-62.9c-2.2-1.2-3.9-4.5-3.9-7.2 0-2.8 1.8-4 3.9-2.8l110.5 62.9c2.2 1.2 3.9 4.5 3.9 7.2 0 2.8-1.8 4-3.9 2.8z"/><linearGradient id="SVGID_20_" gradientUnits="userSpaceOnUse" x1="1645.209" y1="4789.673" x2="1688.72" y2="4789.673" gradientTransform="matrix(1 .5693 .0003 1.0395 -423.9 -4981.6)"><stop offset="0" stop-color="#82fb7c"/><stop offset="1" stop-color="#0ba2b3"/></linearGradient><path d="M1259.9 982.8l-30.7-17.5c-3.5-2-6.4-7.3-6.4-11.8v-39.3c0-4.5 2.9-6.5 6.4-4.5l30.7 17.5c3.5 2 6.4 7.3 6.4 11.8v39.3c0 4.5-2.9 6.6-6.4 4.5z" fill="url(#SVGID_20_)"/><path class="st23" d="M1231.7 930l8.3 24.5 20.6-3.6-3.6-9-14.2 3.1-6.4-17.2z"/><linearGradient id="SVGID_21_" gradientUnits="userSpaceOnUse" x1="1237.048" y1="1692.946" x2="1317.013" y2="1692.946"><stop offset="0" stop-color="#303030"/><stop offset="1" stop-color="#727272"/></linearGradient><path d="M1317 1657.6c-.1 0-.1-.1-.2-.1s-.2-.1-.2-.1c-.4-.2-.8-.4-1.3-.6-.1-.1-.3-.1-.4-.2-.3-.1-.5-.2-.8-.3-.2-.1-.4-.1-.6-.2-.1 0-.2-.1-.2-.1h-.1c-.1 0-.2-.1-.3-.1-.2-.1-.5-.1-.8-.2-.3-.1-.6-.1-.9-.2h-.3c-.5-.1-1-.1-1.6-.2h-2.3c-.5 0-.9 0-1.4.1-.5 0-1 .1-1.5.2-.3 0-.6.1-.8.1-.4.1-.9.2-1.4.3-.2.1-.4.1-.6.2-.1 0-.2 0-.2.1l-.9.3c-.1 0-.2.1-.4.1-.2.1-.4.1-.6.2-.1 0-.3.1-.4.1-.3.1-.5.2-.8.3-.2.1-.5.2-.8.3-.5.2-.9.4-1.4.6-.3.1-.6.3-.8.4l-.6.3c-.3.2-.6.3-.9.5-.4.2-.9.5-1.3.7-.6.3-1.1.7-1.7 1s-1.1.7-1.7 1.1c-.4.2-.7.5-1.1.8-.7.5-1.5 1.1-2.2 1.7-.4.3-.8.7-1.2 1-.7.6-1.3 1.1-2 1.7-.4.4-.8.7-1.2 1.1l-1.5 1.5c-.8.8-1.6 1.6-2.3 2.5-.4.5-.9 1-1.3 1.5-.5.5-.9 1.1-1.4 1.7-.5.7-1.1 1.3-1.6 2-.3.4-.7.9-1 1.3-.6.8-1.2 1.6-1.7 2.5-.2.3-.5.7-.7 1-.4.6-.8 1.2-1.1 1.8-.4.6-.7 1.2-1.1 1.9-.1.2-.2.4-.3.5-.6 1-1.2 2.1-1.7 3.1-.2.3-.4.7-.5 1-.6 1.1-1.1 2.2-1.6 3.4-.1.2-.1.3-.2.5-.3.6-.5 1.3-.8 1.9-.3.6-.5 1.3-.7 1.9-.1.4-.3.8-.4 1.1-.3.9-.6 1.9-.9 2.8-.2.5-.3 1-.4 1.4-.2.8-.5 1.7-.7 2.5-.2.6-.3 1.2-.4 1.8-.1.6-.2 1.1-.4 1.7 0 .2-.1.3-.1.5-.1.5-.2.9-.3 1.4 0 .2-.1.4-.1.6-.2 1-.3 2-.4 3 0 .4-.1.8-.1 1.2 0 .4-.1.8-.1 1.2 0 .5-.1 1-.1 1.5v3.4c0 .3 0 .5.1.8 0 .5.1 1 .1 1.5 0 .4.1.7.1 1.1.1.4.1.8.2 1.2 0 .1 0 .2.1.3.1.3.1.7.2 1l.3 1.2c.1.4.2.8.3 1.1.1.3.2.5.2.7.1.2.1.3.2.5 0 .1.1.2.1.2.1.2.2.4.2.7.4.9.8 1.8 1.3 2.7l.3.6c0 .1.1.1.1.2.2.3.3.5.5.8.1.2.2.4.4.5v.1c.2.3.4.5.6.8.2.2.4.4.6.7.5.6 1.1 1.2 1.7 1.7.2.1.3.3.5.4.1.1.3.2.4.3.4.3.7.5 1.1.8.1.1.3.2.5.3-.1 0-.2-.1-.3-.2l-20-11.6c-1.6-.9-3-2.1-4.2-3.5-3.7-4.2-5.9-10.6-5.9-18.9 0-1.3.1-2.6.2-3.9 0-.4.1-.8.1-1.2.1-.6.1-1.2.2-1.7 0-.3.1-.5.1-.8.1-.9.3-1.8.5-2.8.1-.4.1-.9.2-1.3 0-.2.1-.4.2-.6.1-.6.3-1.2.4-1.8.1-.5.2-1.1.4-1.6l.3-.9c.1-.5.3-1 .4-1.4.1-.4.2-.8.4-1.2.2-.5.4-1.1.6-1.6.1-.4.3-.8.4-1.1.1-.2.1-.4.2-.6.4-1 .8-2.1 1.3-3.1 0-.1 0-.1.1-.1.1-.1.1-.3.2-.4.4-.8.7-1.6 1.1-2.4.1-.3.3-.6.5-.9.2-.4.4-.7.5-1 .2-.3.3-.7.5-1 .4-.7.8-1.4 1.2-2.2l.3-.6c0-.1.1-.1.1-.2l1.8-3c.1-.1.2-.3.3-.4.2-.3.4-.7.7-1 .4-.5.7-1.1 1-1.6.2-.3.4-.6.7-.9.3-.4.6-.9 1-1.3.2-.3.4-.6.7-.9.3-.4.6-.7.9-1.1.4-.6.9-1.1 1.4-1.7.2-.2.4-.5.6-.7.2-.3.5-.5.7-.8.8-.9 1.5-1.7 2.3-2.5.3-.3.5-.5.7-.8l.7-.7c.4-.4.8-.7 1.2-1.1.6-.6 1.3-1.2 2-1.7.4-.3.8-.7 1.2-1 .7-.6 1.5-1.1 2.2-1.7.4-.2.7-.5 1.1-.8 1.1-.7 2.2-1.5 3.3-2.1.7-.4 1.5-.8 2.2-1.2l.6-.3c.6-.3 1.1-.5 1.7-.8.1-.1.2-.1.4-.2.1 0 .1-.1.2-.1l1.5-.6c.1 0 .3-.1.4-.1.6-.2 1.3-.4 1.9-.6h.3c1-.3 1.9-.5 2.9-.6.8-.1 1.6-.2 2.3-.2h2.9c.5 0 1.1.1 1.6.2h.3c.1 0 .1 0 .2.1.6.1 1.2.2 1.7.4h.1c.5.2 1.1.3 1.6.6.1 0 .1 0 .2.1.1 0 .2.1.2.1.3.1.6.3.9.4.1.1.2.1.4.2.1 0 .1.1.2.1s.1.1.2.1l20.3 11.6z" fill="url(#SVGID_21_)"/><linearGradient id="SVGID_22_" gradientUnits="userSpaceOnUse" x1="1257.444" y1="1700.084" x2="1327.181" y2="1700.084"><stop offset="0" stop-color="#303030"/><stop offset="1" stop-color="#4c4a4b"/></linearGradient><path d="M1327.2 1679.9c.1 22.1-15.5 49.1-34.8 60.2-9.7 5.6-18.6 6.1-24.9 2.4-.1 0-.2-.1-.3-.2-.1 0-.1-.1-.2-.1-.4-.2-.7-.5-1.1-.8-.1-.1-.3-.2-.4-.3-.2-.1-.3-.2-.5-.4-.6-.5-1.1-1-1.7-1.7-.2-.2-.4-.4-.6-.7-.2-.2-.4-.5-.6-.8v-.1c-.1-.2-.2-.3-.4-.5s-.3-.5-.5-.8c0-.1-.1-.1-.1-.2l-.3-.6c-.5-.8-.9-1.7-1.3-2.7-.1-.2-.2-.4-.2-.7 0-.1-.1-.2-.1-.2-.1-.2-.1-.3-.2-.5s-.2-.5-.2-.7c-.1-.4-.2-.8-.3-1.1l-.3-1.2c-.1-.3-.1-.7-.2-1 0-.1 0-.2-.1-.3-.1-.4-.1-.8-.2-1.2-.1-.4-.1-.7-.1-1.1-.1-.5-.1-1-.1-1.5 0-.3 0-.5-.1-.8v-3.4c0-.5 0-1 .1-1.5.1-2.4.4-4.9.9-7.4 0-.2.1-.3.1-.5.7-3.8 1.8-7.6 3.2-11.3.2-.6.5-1.3.7-1.9.3-.6.5-1.3.8-1.9 1.3-2.9 2.7-5.8 4.3-8.5.4-.6.7-1.3 1.1-1.9 5.8-9.5 13.4-17.7 21.8-23 .6-.4 1.1-.7 1.7-1 .4-.2.9-.5 1.3-.7l2.4-1.2c.3-.1.6-.2.8-.4l.6-.3c.3-.1.5-.2.8-.3.3-.1.5-.2.8-.3.1-.1.3-.1.4-.1.2-.1.4-.1.6-.2.1 0 .2-.1.4-.1l.9-.3c.3-.1.6-.2.9-.2.5-.1.9-.2 1.4-.3.3-.1.6-.1.8-.1.5-.1 1-.1 1.5-.2.3 0 .6-.1.9-.1h2.8c.6 0 1.2.1 1.8.2h.2c.2 0 .4.1.6.1.3.1.5.1.8.2.2.1.4.1.6.2.2.1.4.1.6.2.4.1.8.3 1.2.5.5.2 1 .5 1.5.7 5.5 3.1 9.2 9.4 10.2 18.3.2 1.5.3 2.9.3 4.3z" fill="url(#SVGID_22_)"/><linearGradient id="SVGID_23_" gradientUnits="userSpaceOnUse" x1="1272.991" y1="1700.152" x2="1316.383" y2="1700.152"><stop offset="0" stop-color="#303030"/><stop offset="1" stop-color="#3c3c3c"/></linearGradient><path d="M1316.4 1686.2c0 15.3-10.7 33.9-24 41.6-7.9 4.6-15 4.2-19.4-.1 3.7.5 8-.5 12.7-3.2 13.3-7.7 24-26.3 24-41.6 0-6.1-1.8-10.8-4.7-13.7 6.8 1 11.3 7.1 11.4 17z" fill="url(#SVGID_23_)"/><linearGradient id="SVGID_24_" gradientUnits="userSpaceOnUse" x1="1291.067" y1="1665.15" x2="1287.391" y2="1723.172"><stop offset="0" stop-color="#3f3f3f"/><stop offset="1" stop-color="#727272"/></linearGradient><path d="M1309.7 1683c0 15.3-10.7 33.9-24 41.6-4.6 2.7-9 3.7-12.7 3.2-3-2.9-4.7-7.6-4.8-13.7 0-15.3 10.7-33.9 24-41.5 4.7-2.7 9-3.7 12.7-3.2 3 2.8 4.8 7.4 4.8 13.6z" fill="url(#SVGID_24_)"/><linearGradient id="SVGID_25_" gradientUnits="userSpaceOnUse" x1="1280.639" y1="1696.903" x2="1301.241" y2="1696.903"><stop offset="0" stop-color="#303030"/><stop offset="1" stop-color="#231a1a"/></linearGradient><path d="M1301.2 1687.8c-.1 0-.1 0-.1-.1-.1-.1-.2-.1-.3-.2h-.1c-.1 0-.1-.1-.2-.1h-.3c-.1 0-.1 0-.2-.1h-2.3c-.1 0-.2 0-.4.1h-.3c-.1 0-.2 0-.2.1h-.1c-.1 0-.1 0-.2.1h-.1c-.1 0-.1 0-.2.1-.1 0-.1 0-.2.1-.1 0-.2.1-.4.2-.1 0-.1.1-.2.1s-.1.1-.2.1-.2.1-.2.1c-.1.1-.2.1-.3.2-.1.1-.3.2-.4.3s-.3.2-.4.3c-.1.1-.2.1-.3.2-.2.1-.4.3-.6.4l-.3.3c-.2.1-.3.3-.5.4l-.3.3-.4.4-.6.6c-.1.1-.2.3-.3.4-.1.1-.2.3-.4.4-.1.2-.3.3-.4.5l-.3.3c-.2.2-.3.4-.4.6-.1.1-.1.2-.2.3-.1.2-.2.3-.3.5-.1.2-.2.3-.3.5 0 0 0 .1-.1.1-.2.3-.3.5-.4.8 0 .1-.1.2-.1.3-.1.3-.3.6-.4.9 0 0 0 .1-.1.1-.1.2-.1.3-.2.5s-.1.3-.2.5c0 .1-.1.2-.1.3-.1.2-.2.5-.2.7 0 .1-.1.2-.1.4-.1.2-.1.4-.2.6 0 .2-.1.3-.1.5 0 .1-.1.3-.1.4v.1c0 .1 0 .2-.1.4v.2c0 .3-.1.5-.1.8v3.2c0 .1 0 .2.1.3 0 .1 0 .2.1.3 0 .1.1.2.1.3 0 .1 0 .1.1.2v.2c0 .1 0 .1.1.2.1.2.2.5.3.7 0 .1.1.1.1.2v.1c0 .1.1.1.1.2l.1.1c0 .1.1.1.2.2 0 .1.1.1.1.2.1.2.3.3.4.4l.1.1.1.1c.1.1.2.1.3.2 0 0 .1 0 .1.1h-.1l-5.2-3c-.4-.2-.8-.5-1.1-.9-1-1.1-1.5-2.7-1.5-4.9v-1.9c0-.2.1-.5.1-.7 0-.1 0-.2.1-.3v-.2c0-.2.1-.3.1-.5 0-.1.1-.3.1-.4 0-.1 0-.2.1-.2 0-.1.1-.2.1-.4 0-.1.1-.2.1-.3 0-.1.1-.3.1-.4 0-.1.1-.2.1-.3 0 0 0-.1.1-.1.1-.3.2-.5.3-.8 0 0 0-.1.1-.1l.3-.6c0-.1.1-.2.1-.2 0-.1.1-.2.1-.3 0-.1.1-.2.1-.3l.3-.6c0-.1.1-.1.1-.2.1-.3.3-.5.5-.8l.1-.1c.1-.1.1-.2.2-.3.1-.1.2-.3.3-.4.1-.1.1-.2.2-.2l.3-.3c.1-.1.1-.2.2-.2.1-.1.2-.2.2-.3.1-.1.2-.3.4-.4l.2-.2.2-.2.6-.6.2-.2.2-.2.3-.3c.2-.2.3-.3.5-.4l.3-.3c.2-.1.4-.3.6-.4.1-.1.2-.1.3-.2.3-.2.6-.4.9-.5l.6-.3c.1 0 .1-.1.2-.1.1-.1.3-.1.4-.2h.2c.1-.1.3-.1.4-.2h.1c.2-.1.3-.1.5-.1.3-.1.5-.1.7-.2.2 0 .4 0 .6-.1h1.3c.2 0 .3.1.4.1.1 0 .3.1.4.1h.2c.1 0 .2.1.2.1s.1 0 .1.1h.1l5.4 2.6z" fill="url(#SVGID_25_)"/><linearGradient id="SVGID_26_" gradientUnits="userSpaceOnUse" x1="1285.894" y1="1698.743" x2="1303.86" y2="1698.743"><stop offset="0" stop-color="#3f3f3f"/><stop offset="1" stop-color="#727272"/></linearGradient><path d="M1303.9 1693.6c0 5.7-4 12.6-9 15.5-2.5 1.5-4.8 1.6-6.4.6h-.2c-.1-.1-.2-.1-.3-.2l-.1-.1-.1-.1c-.2-.1-.3-.3-.4-.4 0-.1-.1-.1-.1-.2l-.2-.2-.1-.1c0-.1-.1-.1-.1-.2v-.1s-.1-.1-.1-.2c-.1-.2-.2-.4-.3-.7 0-.1 0-.1-.1-.2v-.2c0-.1 0-.1-.1-.2 0-.1-.1-.2-.1-.3 0-.1-.1-.2-.1-.3 0-.1 0-.2-.1-.3v-2.6c0-.6.1-1.3.2-1.9v-.1c.2-1 .5-1.9.8-2.9.1-.2.1-.3.2-.5s.1-.3.2-.5c.3-.7.7-1.5 1.1-2.2.1-.2.2-.3.3-.5 1.5-2.4 3.5-4.6 5.6-5.9.1-.1.3-.2.4-.3.1-.1.2-.1.3-.2l.6-.3c.1 0 .1-.1.2-.1s.1 0 .2-.1c.1 0 .1-.1.2-.1s.1-.1.2-.1h.1c.1 0 .1 0 .2-.1h.1c.1 0 .2 0 .2-.1.1 0 .2 0 .2-.1.1 0 .2-.1.4-.1h1.5c.2 0 .3 0 .5.1h.8c.1 0 .2.1.3.1.1.1.3.1.4.2 1.4.8 2.4 2.4 2.6 4.7 0 .7.1 1.1.1 1.5z" fill="url(#SVGID_26_)"/><linearGradient id="SVGID_27_" gradientUnits="userSpaceOnUse" x1="932.419" y1="1854.668" x2="1012.384" y2="1854.668"><stop offset="0" stop-color="#303030"/><stop offset="1" stop-color="#727272"/></linearGradient><path d="M1012.4 1819.3c-.1 0-.1-.1-.2-.1s-.2-.1-.2-.1c-.4-.2-.8-.4-1.3-.6-.1-.1-.3-.1-.4-.2-.3-.1-.5-.2-.8-.3-.2-.1-.4-.1-.6-.2-.1 0-.2-.1-.2-.1h-.1c-.1 0-.2-.1-.3-.1-.2-.1-.5-.1-.8-.2-.3-.1-.6-.1-.9-.2h-.3c-.5-.1-1-.1-1.6-.2h-2.3c-.5 0-.9 0-1.4.1-.5 0-1 .1-1.5.2-.3 0-.6.1-.8.1-.4.1-.9.2-1.4.3-.2.1-.4.1-.6.2-.1 0-.2 0-.2.1l-.9.3c-.1 0-.2.1-.4.1-.2.1-.4.1-.6.2-.1 0-.3.1-.4.1-.3.1-.5.2-.8.3-.2.1-.5.2-.8.3-.5.2-.9.4-1.4.6-.3.1-.6.3-.8.4l-.6.3c-.3.2-.6.3-.9.5-.4.2-.9.5-1.3.7-.6.3-1.1.7-1.7 1-.6.4-1.1.7-1.7 1.1-.4.2-.7.5-1.1.8-.7.5-1.5 1.1-2.2 1.7-.4.3-.8.7-1.2 1-.7.6-1.3 1.1-2 1.7-.4.4-.8.7-1.2 1.1l-1.5 1.5c-.8.8-1.6 1.6-2.3 2.5-.4.5-.9 1-1.3 1.5-.5.5-.9 1.1-1.4 1.7-.5.7-1.1 1.3-1.6 2-.3.4-.7.9-1 1.3-.6.8-1.2 1.6-1.7 2.5-.2.3-.5.7-.7 1-.4.6-.8 1.2-1.1 1.8-.4.6-.7 1.2-1.1 1.9-.1.2-.2.4-.3.5-.6 1-1.2 2.1-1.7 3.1-.2.3-.4.7-.5 1-.6 1.1-1.1 2.2-1.6 3.4-.1.2-.1.3-.2.5-.3.6-.5 1.3-.8 1.9-.3.6-.5 1.3-.7 1.9-.1.4-.3.8-.4 1.1-.3.9-.6 1.9-.9 2.8-.2.5-.3 1-.4 1.4-.2.8-.5 1.7-.7 2.5-.2.6-.3 1.2-.4 1.8-.1.6-.2 1.1-.4 1.7 0 .2-.1.3-.1.5-.1.5-.2.9-.3 1.4 0 .2-.1.4-.1.6-.2 1-.3 2-.4 3 0 .4-.1.8-.1 1.2 0 .4-.1.8-.1 1.2 0 .5-.1 1-.1 1.5v3.4c0 .3 0 .5.1.8 0 .5.1 1 .1 1.5 0 .4.1.7.1 1.1.1.4.1.8.2 1.2 0 .1 0 .2.1.3.1.3.1.7.2 1l.3 1.2c.1.4.2.8.3 1.1.1.3.2.5.2.7.1.2.1.3.2.5 0 .1.1.2.1.2.1.2.2.4.2.7.4.9.8 1.8 1.3 2.7l.3.6c0 .1.1.1.1.2.2.3.3.5.5.8.1.2.2.4.4.5v.1c.2.3.4.5.6.8.2.2.4.4.6.7.5.6 1.1 1.2 1.7 1.7.2.1.3.3.5.4.1.1.3.2.4.3.4.3.7.5 1.1.8.1.1.3.2.5.3-.1 0-.2-.1-.3-.2l-20-11.6c-1.6-.9-3-2.1-4.2-3.5-3.7-4.2-5.9-10.6-5.9-18.9 0-1.3.1-2.6.2-3.9 0-.4.1-.8.1-1.2.1-.6.1-1.2.2-1.7 0-.3.1-.5.1-.8.1-.9.3-1.8.5-2.8.1-.4.1-.9.2-1.3 0-.2.1-.4.2-.6.1-.6.3-1.2.4-1.8.1-.5.2-1.1.4-1.6l.3-.9c.1-.5.3-1 .4-1.4.1-.4.2-.8.4-1.2.2-.5.4-1.1.6-1.6.1-.4.3-.8.4-1.1.1-.2.1-.4.2-.6.4-1 .8-2.1 1.3-3.1 0-.1 0-.1.1-.1.1-.1.1-.3.2-.4.4-.8.7-1.6 1.1-2.4.1-.3.3-.6.5-.9.2-.4.4-.7.5-1 .2-.3.3-.7.5-1 .4-.7.8-1.4 1.2-2.2l.3-.6c0-.1.1-.1.1-.2l1.8-3c.1-.1.2-.3.3-.4.2-.3.4-.7.7-1 .4-.5.7-1.1 1-1.6.2-.3.4-.6.7-.9.3-.4.6-.9 1-1.3.2-.3.4-.6.7-.9.3-.4.6-.7.9-1.1.4-.6.9-1.1 1.4-1.7.2-.2.4-.5.6-.7.2-.3.5-.5.7-.8.8-.9 1.5-1.7 2.3-2.5.3-.3.5-.5.7-.8l.7-.7c.4-.4.8-.7 1.2-1.1.6-.6 1.3-1.2 2-1.7.4-.3.8-.7 1.2-1 .7-.6 1.5-1.1 2.2-1.7.4-.2.7-.5 1.1-.8 1.1-.7 2.2-1.5 3.3-2.1.7-.4 1.5-.8 2.2-1.2l.6-.3c.6-.3 1.1-.5 1.7-.8.1-.1.2-.1.4-.2.1 0 .1-.1.2-.1l1.5-.6c.1 0 .3-.1.4-.1.6-.2 1.3-.4 1.9-.6h.3c1-.3 1.9-.5 2.9-.6.8-.1 1.6-.2 2.3-.2h2.9c.5 0 1.1.1 1.6.2h.3c.1 0 .1 0 .2.1.6.1 1.2.2 1.7.4h.1c.5.2 1.1.3 1.6.6.1 0 .1 0 .2.1.1 0 .2.1.2.1.3.1.6.3.9.4.1.1.2.1.4.2.1 0 .1.1.2.1s.1.1.2.1l20.3 11.6z" fill="url(#SVGID_27_)"/><linearGradient id="SVGID_28_" gradientUnits="userSpaceOnUse" x1="952.814" y1="1861.806" x2="1022.552" y2="1861.806"><stop offset="0" stop-color="#303030"/><stop offset="1" stop-color="#4c4a4b"/></linearGradient><path d="M1022.6 1841.7c.1 22.1-15.5 49.1-34.8 60.2-9.7 5.6-18.6 6.1-24.9 2.4-.1 0-.2-.1-.3-.2-.1 0-.1-.1-.2-.1-.4-.2-.7-.5-1.1-.8-.1-.1-.3-.2-.4-.3-.2-.1-.3-.2-.5-.4-.6-.5-1.1-1-1.7-1.7-.2-.2-.4-.4-.6-.7-.2-.2-.4-.5-.6-.8v-.1c-.1-.2-.2-.3-.4-.5s-.3-.5-.5-.8c0-.1-.1-.1-.1-.2l-.3-.6c-.5-.8-.9-1.7-1.3-2.7-.1-.2-.2-.4-.2-.7 0-.1-.1-.2-.1-.2-.1-.2-.1-.3-.2-.5s-.2-.5-.2-.7c-.1-.4-.2-.8-.3-1.1l-.3-1.2c-.1-.3-.1-.7-.2-1 0-.1 0-.2-.1-.3-.1-.4-.1-.8-.2-1.2-.1-.4-.1-.7-.1-1.1-.1-.5-.1-1-.1-1.5 0-.3 0-.5-.1-.8v-3.4c0-.5 0-1 .1-1.5.1-2.4.4-4.9.9-7.4 0-.2.1-.3.1-.5.7-3.8 1.8-7.6 3.2-11.3.2-.6.5-1.3.7-1.9.3-.6.5-1.3.8-1.9 1.3-2.9 2.7-5.8 4.3-8.5.4-.6.7-1.3 1.1-1.9 5.8-9.5 13.4-17.7 21.8-23 .6-.4 1.1-.7 1.7-1 .4-.2.9-.5 1.3-.7l2.4-1.2c.3-.1.6-.2.8-.4l.6-.3c.3-.1.5-.2.8-.3.3-.1.5-.2.8-.3.1-.1.3-.1.4-.1.2-.1.4-.1.6-.2.1 0 .2-.1.4-.1l.9-.3c.3-.1.6-.2.9-.2.5-.1.9-.2 1.4-.3.3-.1.6-.1.8-.1.5-.1 1-.1 1.5-.2.3 0 .6-.1.9-.1h2.8c.6 0 1.2.1 1.8.2h.2c.2 0 .4.1.6.1.3.1.5.1.8.2.2.1.4.1.6.2.2.1.4.1.6.2.4.1.8.3 1.2.5.5.2 1 .5 1.5.7 5.5 3.1 9.2 9.4 10.2 18.3.2 1.4.2 2.8.3 4.3z" fill="url(#SVGID_28_)"/><linearGradient id="SVGID_29_" gradientUnits="userSpaceOnUse" x1="968.362" y1="1861.874" x2="1011.754" y2="1861.874"><stop offset="0" stop-color="#303030"/><stop offset="1" stop-color="#3c3c3c"/></linearGradient><path d="M1011.8 1847.9c0 15.3-10.7 33.9-24 41.6-7.9 4.6-15 4.2-19.4-.1 3.7.5 8-.5 12.7-3.2 13.3-7.7 24-26.3 24-41.6 0-6.1-1.8-10.8-4.7-13.7 6.8 1 11.3 7.1 11.4 17z" fill="url(#SVGID_29_)"/><linearGradient id="SVGID_30_" gradientUnits="userSpaceOnUse" x1="986.438" y1="1826.872" x2="982.762" y2="1884.894"><stop offset="0" stop-color="#3f3f3f"/><stop offset="1" stop-color="#727272"/></linearGradient><path d="M1005 1844.7c0 15.3-10.7 33.9-24 41.6-4.6 2.7-9 3.7-12.7 3.2-3-2.9-4.7-7.6-4.8-13.7 0-15.3 10.7-33.9 24-41.5 4.7-2.7 9-3.7 12.7-3.2 3.1 2.8 4.8 7.5 4.8 13.6z" fill="url(#SVGID_30_)"/><linearGradient id="SVGID_31_" gradientUnits="userSpaceOnUse" x1="976.01" y1="1858.626" x2="996.611" y2="1858.626"><stop offset="0" stop-color="#303030"/><stop offset="1" stop-color="#231a1a"/></linearGradient><path d="M996.6 1849.5c-.1 0-.1 0 0 0-.2-.1-.3-.2-.4-.2h-.1c-.1 0-.1-.1-.2-.1h-.7c-.2 0-.3 0-.4-.1h-1.6c-.1 0-.2 0-.4.1h-.3c-.1 0-.2 0-.2.1h-.1c-.1 0-.1 0-.2.1h-.1c-.1 0-.1 0-.2.1-.1 0-.1 0-.2.1-.1 0-.2.1-.4.2-.1 0-.1.1-.2.1s-.1.1-.2.1-.2.1-.2.1c-.1.1-.2.1-.3.2-.1.1-.3.2-.4.3-.1.1-.3.2-.4.3-.1.1-.2.1-.3.2-.2.1-.4.3-.6.4l-.3.3c-.2.1-.3.3-.5.4l-.3.3-.4.4-.6.6c-.1.1-.2.3-.3.4-.1.1-.2.3-.4.4-.1.2-.3.3-.4.5l-.3.3c-.2.2-.3.4-.4.6-.1.1-.1.2-.2.3-.1.2-.2.3-.3.5-.1.2-.2.3-.3.5 0 0 0 .1-.1.1-.2.3-.3.5-.4.8 0 .1-.1.2-.1.3-.1.3-.3.6-.4.9 0 0 0 .1-.1.1-.1.2-.1.3-.2.5s-.1.3-.2.5c0 .1-.1.2-.1.3-.1.2-.2.5-.2.7 0 .1-.1.2-.1.4-.1.2-.1.4-.2.6 0 .2-.1.3-.1.5 0 .1-.1.3-.1.4v.1c0 .1 0 .2-.1.4v.2c0 .3-.1.5-.1.8v3.2c0 .1 0 .2.1.3 0 .1 0 .2.1.3 0 .1.1.2.1.3 0 .1 0 .1.1.2v.1c0 .1 0 .1.1.2.1.2.2.5.3.7 0 .1.1.1.1.2v.1c0 .1.1.1.1.2l.1.1c0 .1.1.1.2.2 0 .1.1.1.1.2.1.2.3.3.4.4l.1.1.1.1c.1.1.2.1.3.2 0 0 .1 0 .1.1h-.1l-5.2-3c-.4-.2-.8-.5-1.1-.9-1-1.1-1.5-2.7-1.5-4.9v-1.9c0-.2.1-.5.1-.7 0-.1 0-.2.1-.3v-.2c0-.2.1-.3.1-.5 0-.1.1-.3.1-.4 0-.1 0-.2.1-.2 0-.1.1-.2.1-.4 0-.1.1-.2.1-.3 0-.1.1-.3.1-.4 0-.1.1-.2.1-.3 0 0 0-.1.1-.1.1-.3.2-.5.3-.8 0-.1 0-.1.1-.1l.3-.6c0-.1.1-.2.1-.2 0-.1.1-.2.1-.3 0-.1.1-.2.1-.3l.3-.6c0-.1.1-.1.1-.2.2-.3.3-.5.5-.8l.1-.1c.1-.1.1-.2.2-.3.1-.1.2-.3.3-.4.1-.1.1-.2.2-.2l.3-.3c.1-.1.1-.2.2-.2.1-.1.2-.2.2-.3.1-.1.2-.3.4-.4l.2-.2.2-.2.6-.6.2-.2.2-.2.3-.3c.2-.2.3-.3.5-.4l.3-.3c.2-.1.4-.3.6-.4.1-.1.2-.1.3-.2.3-.2.6-.4.9-.5l.6-.3c.1 0 .1-.1.2-.1.1-.1.3-.1.4-.2h.2c.1-.1.3-.1.4-.2h.1c.2-.1.3-.1.5-.1.3-.1.5-.1.8-.2.2 0 .4 0 .6-.1h1.3c.2 0 .3.1.4.1.1 0 .3.1.4.1h.1c.1 0 .2.1.3.1 0 0 .1 0 .1.1h.1l5.2 2.6z" fill="url(#SVGID_31_)"/><linearGradient id="SVGID_32_" gradientUnits="userSpaceOnUse" x1="981.264" y1="1860.465" x2="999.231" y2="1860.465"><stop offset="0" stop-color="#3f3f3f"/><stop offset="1" stop-color="#727272"/></linearGradient><path d="M999.2 1855.3c0 5.7-4 12.6-9 15.5-2.5 1.5-4.8 1.6-6.4.6h-.2c-.1-.1-.2-.1-.3-.2l-.1-.1-.1-.1c-.2-.1-.3-.3-.4-.4 0-.1-.1-.1-.1-.2l-.2-.2-.1-.1c0-.1-.1-.1-.1-.2v-.1s-.1-.1-.1-.2c-.1-.2-.2-.4-.3-.7 0-.1 0-.1-.1-.2v-.2c0-.1 0-.1-.1-.2 0-.1-.1-.2-.1-.3 0-.1-.1-.2-.1-.3 0-.1 0-.2-.1-.3v-2.6c0-.6.1-1.3.2-1.9v-.1c.2-1 .5-1.9.8-2.9.1-.2.1-.3.2-.5s.1-.3.2-.5c.3-.7.7-1.5 1.1-2.2.1-.2.2-.3.3-.5 1.5-2.4 3.5-4.6 5.6-5.9.1-.1.3-.2.4-.3.1-.1.2-.1.3-.2l.6-.3c.1 0 .1-.1.2-.1s.1 0 .2-.1c.1 0 .1-.1.2-.1s.1-.1.2-.1h.1c.1 0 .1 0 .2-.1h.1c.1 0 .2 0 .2-.1.1 0 .2 0 .2-.1.1 0 .2-.1.4-.1h1.5c.2 0 .3 0 .5.1h.7c.1 0 .2.1.3.1.1.1.3.1.4.2 1.4.8 2.4 2.4 2.6 4.7.2.7.2 1.1.2 1.5z" fill="url(#SVGID_32_)"/><path d="M915.4 1874.3l427.5-246.3c8.4-4.8 8.4-16.8.1-21.8l-231.1-136.7c-10.8-6.4-24.2-6.4-35-.1L661.2 1713" fill="none" stroke="#a2a3a2" stroke-width="9" stroke-miterlimit="10"/><g class="st12"><path class="st25" d="M1107.9 1723.8l205.3-122.3v-214.8L1107.9 1509z"/><path class="st20" d="M1107.9 1509l205.3-122.3-210-120L898 1389z"/><path class="st21" d="M898 1389v214.7l209.9 120.1V1509z"/></g><g class="st22"><path class="st23" d="M1189.3 1461.7l42.5-25.4-209.9-120-42.6 25.3z"/></g><path class="st24" d="M1231.8 1499l-42.5 25.3v-62.6l42.5-25.4zm-323.7-25.4l42.5 25.4v-62.7l-42.5-25.3z"/><path class="st23" d="M915.1 1435.9l28.4 16.7c1 .6 1.8.3 1.8-.8 0-1-.8-2.3-1.8-2.9l-28.4-16.7c-1-.6-1.8-.3-1.8.8 0 1 .8 2.3 1.8 2.9zm0 12.5l28.4 16.7c1 .6 1.8.3 1.8-.8 0-1-.8-2.3-1.8-2.9l-28.4-16.7c-1-.6-1.8-.3-1.8.8 0 1 .8 2.3 1.8 2.9zm0 12.5l28.4 16.7c1 .6 1.8.3 1.8-.8 0-1-.8-2.3-1.8-2.9l-28.4-16.7c-1-.6-1.8-.3-1.8.8 0 1 .8 2.3 1.8 2.9z"/><g class="st12"><path class="st25" d="M889 1855.9l205.2-122.3v-214.8L889 1641.1z"/><path class="st20" d="M889 1641.1l205.2-122.3-209.9-120L679 1521.1z"/><path class="st21" d="M679 1521.1v214.7l210 120.1v-214.8z"/></g><g class="st22"><path class="st23" d="M970.3 1593.8l42.6-25.4-210-120-42.5 25.3z"/></g><path class="st24" d="M1012.9 1631.1l-42.6 25.3v-62.6l42.6-25.4zm-323.8-25.4l42.6 25.4v-62.7l-42.6-25.3z"/><path class="st23" d="M696.2 1568l28.4 16.7c1 .6 1.8.3 1.8-.8 0-1-.8-2.3-1.8-2.9l-28.4-16.7c-1-.6-1.8-.3-1.8.8 0 1 .8 2.3 1.8 2.9zm0 12.5l28.4 16.7c1 .6 1.8.3 1.8-.8 0-1-.8-2.3-1.8-2.9l-28.4-16.7c-1-.6-1.8-.3-1.8.8 0 1 .8 2.3 1.8 2.9zm0 12.5l28.4 16.7c1 .6 1.8.3 1.8-.8 0-1-.8-2.3-1.8-2.9l-28.4-16.7c-1-.6-1.8-.3-1.8.8 0 1 .8 2.4 1.8 2.9z"/><g class="st12"><path class="st25" d="M889 1640.6l205.2-122.3v-214.8L889 1425.8z"/><path class="st20" d="M889 1425.8l205.2-122.3-209.9-120L679 1305.8z"/><path class="st21" d="M679 1305.8v214.7l210 120.1v-214.8z"/></g><g class="st22"><path class="st23" d="M970.3 1378.5l42.6-25.4-210-120-42.5 25.3z"/></g><path class="st24" d="M1012.9 1415.8l-42.6 25.3v-62.6l42.6-25.4zm-323.8-25.4l42.6 25.4v-62.7l-42.6-25.3z"/><path class="st23" d="M696.2 1352.7l28.4 16.7c1 .6 1.8.3 1.8-.8 0-1-.8-2.3-1.8-2.9l-28.4-16.7c-1-.6-1.8-.3-1.8.8 0 1 .8 2.3 1.8 2.9zm0 12.5l28.4 16.7c1 .6 1.8.3 1.8-.8 0-1-.8-2.3-1.8-2.9l-28.4-16.7c-1-.6-1.8-.3-1.8.8 0 1 .8 2.3 1.8 2.9zm0 12.5l28.4 16.7c1 .6 1.8.3 1.8-.8 0-1-.8-2.3-1.8-2.9l-28.4-16.7c-1-.6-1.8-.3-1.8.8 0 1 .8 2.3 1.8 2.9z"/><path d="M665.7 1402.2L921 1544.8m-255.3 35.3L921 1722.7m0 138.7v-300.1c0-10.7-3.3-21.2-9.5-30l-91-129c-4.9-7-11.3-12.7-18.8-16.9L591.4 1268c-8.1-4.5-16.8 5.1-11.4 12.7l73.8 104.6c7.8 11 12 24.2 12 37.7v300.4c0 15.9 8.6 30.5 22.4 38.2l206.4 115.3c11.8 6.6 26.4-2 26.4-15.5zm-191.9-423.8v346.1m99.2-288.5v346.1" fill="none" stroke="#c6c6c6" stroke-width="9" stroke-miterlimit="10"/><linearGradient id="SVGID_33_" gradientUnits="userSpaceOnUse" x1="12523.409" y1="2070.803" x2="12411.214" y2="2077.782" gradientTransform="matrix(-1 0 0 1 12841.888 0)"><stop offset="0" stop-color="#303030"/><stop offset="1" stop-color="#4c4a4b"/></linearGradient><path d="M300 2059.1s-11.6 26.5-3.7 35.9c7.9 9.5 37.7 22.6 53 18.9 15.3-3.6 42.9-34.9 66.2-45.1 23.3-10.2 26.9-32.7 0-34.2s-67.7 9.5-67.7 9.5l-47.8 15z" fill="url(#SVGID_33_)"/><linearGradient id="SVGID_34_" gradientUnits="userSpaceOnUse" x1="12358.693" y1="2145.541" x2="12216.3" y2="2154.399" gradientTransform="matrix(-1 0 0 1 12841.888 0)"><stop offset="0" stop-color="#303030"/><stop offset="1" stop-color="#4c4a4b"/></linearGradient><path d="M535.6 2105.2s39.3 2.9 64 0c24.7-2.9 43.7 15.3 18.2 36.4-25.5 21.1-58.2 25.5-82.2 41.5s-48 15.3-73.5 0 4.4-74.2 4.4-74.2l69.1-3.7z" fill="url(#SVGID_34_)"/><linearGradient id="SVGID_35_" gradientUnits="userSpaceOnUse" x1="12392.723" y1="1821.963" x2="12545.567" y2="1821.963" gradientTransform="matrix(-1 0 0 1 12841.888 0)"><stop offset="0" stop-color="#303030"/><stop offset="1" stop-color="#4c4a4b"/></linearGradient><path d="M326.2 1575.1s-25.7 40.7-22.8 71.8c2.9 31.1 20.3 83.5 22.8 86.5 2.5 2.9 0 116.6 0 116.6s-25.7 33-28.6 84.5c-2.9 51.5 0 114.6 0 114.6s-4.9 13.6 20.4 18.5c25.3 4.9 40.8-5.8 40.8-5.8s18.5-136 43.2-182.6c24.8-46.6 47.1-236.1 47.1-236.1l-122.9-68z" fill="url(#SVGID_35_)"/><linearGradient id="SVGID_36_" gradientUnits="userSpaceOnUse" x1="12589.761" y1="1254.288" x2="12516.942" y2="1270.308" gradientTransform="matrix(-1 0 0 1 12841.888 0)"><stop offset="0" stop-color="#f9bf1e"/><stop offset="1" stop-color="#f79c45"/></linearGradient><path d="M290.8 1136s-26.4 22.8-33.6 80.5c-7.2 57.6-26.4 163.2 8.4 167.5 34.8 4.2 73.3-6.6 73.3-6.6L290.8 1136z" fill="url(#SVGID_36_)"/><linearGradient id="SVGID_37_" gradientUnits="userSpaceOnUse" x1="12371.679" y1="1188.159" x2="12344.181" y2="1008.045" gradientTransform="matrix(-1 0 0 1 12841.888 0)"><stop offset="0" stop-color="#de8b8b"/><stop offset="1" stop-color="#ffc5c5"/></linearGradient><path d="M547.6 1030.3s6.6 31.7 4 37c-2.7 5.3-8.3 10.6-8.3 10.6s8.9 9.3 8.9 17.9-4.7 43.2-11.9 47.5c-7.2 4.2-22.1 1.6-29.7 6.9-7.6 5.3-10.7 61.6-10.7 61.6l-98.1-26.5 24.5-90.8s-8.6-73.6 32.5-96.1 88.8 31.9 88.8 31.9z" fill="url(#SVGID_37_)"/><linearGradient id="SVGID_38_" gradientUnits="userSpaceOnUse" x1="12378.103" y1="1106.847" x2="12356.747" y2="966.964" gradientTransform="matrix(-1 0 0 1 12841.888 0)"><stop offset="0" stop-color="#303030"/><stop offset="1" stop-color="#4c4a4b"/></linearGradient><path d="M559.6 1016.3c-1.3 15.8-10.2 23-16.3 26.7-18.6 11.5-8.4 44.1-15.6 46.9-7.2 2.7-19.2-28.5-31.1-21.9-11.9 6.6 12.6 33.8 0 45.1-12.6 11.3-66.9 7.7-78.2-2.8-11.3-10.5-26.5-43-25.2-74.8 1.3-31.8 14.6-37.8 14.6-37.8s-8.6-31.1 26.5-37.8 130.6-7.9 125.3 56.4z" fill="url(#SVGID_38_)"/><linearGradient id="SVGID_39_" gradientUnits="userSpaceOnUse" x1="12515.023" y1="1395.545" x2="12252.369" y2="1411.882" gradientTransform="matrix(-1 0 0 1 12841.888 0)"><stop offset="0" stop-color="#f9bf1e"/><stop offset="1" stop-color="#f79c45"/></linearGradient><path d="M532.6 1188.8s-114.5-68.5-133.7-58.8-19.2 21.6-19.2 21.6-68.5-30-88.9-15.6c-20.4 14.4 24 186.1 32.4 291.8 8.4 105.7 4.8 132.6 4.8 132.6s-23.3 94 92.5 111.2 160.1-45.6 160.1-45.6 18.4-348.3 0-367.5c-18.4-19.2-18.9-28.8-37.9-42-18.9-13.2-10.1-27.7-10.1-27.7z" fill="url(#SVGID_39_)"/><linearGradient id="SVGID_40_" gradientUnits="userSpaceOnUse" x1="12176.696" y1="1359.523" x2="12226.213" y2="1421.419" gradientTransform="matrix(-1 0 0 1 12841.888 0)"><stop offset="0" stop-color="#f9bf1e"/><stop offset="1" stop-color="#f79c45"/></linearGradient><path d="M570.6 1263.6c-49 12.4-42.1 55.5-19.2 103 22.9 47.5 83.8 152.5 99.6 148.9 15.7-3.6 153.8-97.3 153.8-97.3s8.4-24-16.8-43.2c-25.2-19.2-37.7-10.8-37.7-10.8L671 1417c-.1 0-53.9-165.2-100.4-153.4z" fill="url(#SVGID_40_)"/><linearGradient id="SVGID_41_" gradientUnits="userSpaceOnUse" x1="12263.922" y1="1887.208" x2="12439.832" y2="1887.208" gradientTransform="matrix(-1 0 0 1 12841.888 0)"><stop offset="0" stop-color="#303030"/><stop offset="1" stop-color="#4c4a4b"/></linearGradient><path d="M403.7 1668.4s-10.9 45.5 23.1 74.7l34 29.1 8.7 141.8s-9.7 25.8-13.6 87.7c-3.9 61.9 4.9 123.1 4.9 123.1s12.3 19.4 41.6 19.4 40-23.3 40-23.3-1.3-134.1 19.7-205.9c21.1-71.9 15-284.9 15-284.9s-55.6 55.9-173.4 38.3z" fill="url(#SVGID_41_)"/><linearGradient id="SVGID_42_" gradientUnits="userSpaceOnUse" x1="842.188" y1="1375.476" x2="772.169" y2="1379.831"><stop offset="0" stop-color="#de8b8b"/><stop offset="1" stop-color="#ffc5c5"/></linearGradient><path d="M770.1 1364.7s6.5-14 17.5-15.9c11-1.9 21.1-.5 21.6 4.3s10.5-6.7 22.1-2.2c11.6 4.5 41.2 36.4 17.6 43.8-23.6 7.4-42.7 13.4-42.7 13.4s-9.5-31.7-36.1-43.4z" fill="url(#SVGID_42_)"/></svg>