<svg width="100" height="23" viewBox="0 0 100 23" fill="none" xmlns="http://www.w3.org/2000/svg"><path d="M12.035 19.268c.033-.209.042-15.313.01-15.643L4.343 5.46v10.648L.38 17.656c-.009-.005-.016-.007-.023-.012-.006-.004-.013-.01-.014-.016-.004-.04-.01-.08-.01-.12V4.61c.06-.073.136-.082.202-.106L11.85.269a.58.58 0 01.394-.03c2.07.6 4.142 1.194 6.213 1.79l.103.033v18.134l-1.774.493c-1.502.414-3.005.825-4.506 1.242a.643.643 0 01-.42-.015c-3.71-1.37-7.42-2.738-11.13-4.105a.503.503 0 01-.207-.123l11.513 1.58zM40.098 9.58h-1.577V8.318h1.512c.09-.082.064-.159.064-.227.002-.451.001-.902.002-1.354 0-.539.09-1.06.344-1.54.517-.98 1.334-1.505 2.444-1.569.364-.02.727-.005 1.082.094.061.017.12.04.188.064v1.308c-.071.036-.12-.022-.176-.044a2.103 2.103 0 00-1.237-.113 1.27 1.27 0 00-.896.676 1.95 1.95 0 00-.216.738c-.057.643-.017 1.286-.027 1.944h3.612c.051-.065.032-.132.032-.194.002-.483-.006-.967.002-1.45.015-.856.281-1.612.903-2.224a2.759 2.759 0 011.751-.792 3.516 3.516 0 011.157.072c.085.02.175.031.249.098V5.12c-.245-.094-.477-.182-.726-.212a2.044 2.044 0 00-.746.041c-.41.102-.701.352-.877.735a2.14 2.14 0 00-.197.842c-.012.563-.007 1.128-.009 1.692 0 .022.011.044.023.09h2.155v1.266h-2.178v8.054h-1.501c-.011-.376-.004-.759-.005-1.141V9.589h-3.643v8.039h-1.503c-.012-.286-.004-.58-.005-.873-.002-.298 0-.596 0-.894V9.58zm-14.964 1.685c.014-1.267.206-2.467.752-3.593.844-1.738 2.232-2.782 4.116-3.173 1.125-.234 2.253-.228 3.358.114 1.804.558 3.014 1.756 3.69 3.501.435 1.125.545 2.298.47 3.493-.051.791-.185 1.568-.46 2.314-.8 2.17-2.338 3.477-4.627 3.854-1.273.21-2.533.107-3.731-.416-1.523-.665-2.521-1.816-3.099-3.352-.335-.893-.461-1.822-.47-2.742zm10.794-.215c-.01-.182-.015-.448-.037-.713-.065-.792-.229-1.561-.585-2.278-.473-.954-1.182-1.664-2.195-2.043a4.643 4.643 0 00-1.541-.278c-1.771-.037-3.123.686-4.027 2.21-.447.754-.68 1.583-.755 2.45-.096 1.11-.003 2.204.417 3.252.453 1.134 1.2 1.996 2.34 2.485.72.309 1.477.384 2.255.316 1.698-.148 2.9-.993 3.605-2.537.403-.881.51-1.823.523-2.864zm54.158-6.326v1.36c-.062.043-.108 0-.157-.023a4.777 4.777 0 00-1.68-.43c-1.037-.071-1.927.24-2.644 1.002-.512.545-.852 1.19-1.083 1.895-.29.88-.387 1.79-.397 2.726.11-.02.116-.114.151-.175.335-.58.78-1.045 1.4-1.326a3.2 3.2 0 011.122-.277c.553-.037 1.1-.006 1.63.17 1.087.36 1.817 1.098 2.194 2.16a4.886 4.886 0 01-.067 3.521c-.66 1.669-2.159 2.605-3.989 2.531-1.215-.049-2.166-.574-2.87-1.555-.483-.674-.762-1.433-.926-2.238-.228-1.114-.245-2.239-.152-3.368.088-1.058.31-2.084.731-3.063.391-.91.933-1.71 1.724-2.327.811-.633 1.735-.943 2.763-.956.593-.007 1.179.036 1.753.192.163.045.325.097.497.18zM84.22 13.6c.008.684.244 1.492.842 2.176.77.88 1.905.987 2.783.605.72-.314 1.152-.896 1.367-1.632a3.928 3.928 0 00-.047-2.354c-.228-.7-.663-1.233-1.371-1.498a2.714 2.714 0 00-1.644-.084c-1.157.294-1.936 1.341-1.93 2.787zm8.387-2.52l.444-6.496h6.054v1.303a.063.063 0 01-.01.014.054.054 0 01-.021.012c-.016.005-.031.01-.047.01h-4.664a272.143 272.143 0 00-.263 3.793c.1.052.181.024.26.022.629-.018 1.259-.06 1.887.029.807.115 1.552.373 2.194.89.657.53 1.048 1.221 1.195 2.042.149.828.133 1.656-.153 2.457-.427 1.194-1.278 1.968-2.457 2.402-.74.273-1.512.322-2.293.3-.583-.016-1.16-.075-1.72-.248a3.294 3.294 0 01-.536-.222c-.068-.035-.12-.072-.12-.162.003-.482.002-.964.002-1.459.086-.006.133.042.184.072.66.393 1.367.655 2.137.725.654.06 1.295.007 1.898-.27.934-.427 1.468-1.152 1.58-2.178.043-.397.027-.79-.077-1.174-.213-.787-.723-1.315-1.469-1.625a3.954 3.954 0 00-1.392-.29 17.017 17.017 0 00-2.446.082c-.045.005-.094.024-.167-.028zM69.61 13.354h-6.584c-.029.331.028.639.09.944.094.455.266.878.554 1.248.455.585 1.067.897 1.794.995 1.192.159 2.275-.128 3.259-.808.06-.04.12-.079.182-.117.005-.004.014 0 .024 0 .045.064.022.139.023.209.003.306-.009.613.005.918.01.177-.057.277-.205.367-.48.294-.995.496-1.546.608-.831.169-1.67.215-2.505.055-1.392-.267-2.32-1.101-2.85-2.395a5.366 5.366 0 01-.366-1.57c-.082-.922-.042-1.835.27-2.72.402-1.137 1.077-2.053 2.184-2.594 1.096-.536 2.231-.566 3.365-.148.986.365 1.604 1.108 1.971 2.072a5.44 5.44 0 01.331 1.724c.018.392.004.786.004 1.212zm-1.54-1.284c-.007-.673-.124-1.296-.505-1.848-.212-.305-.485-.548-.834-.677-.84-.31-1.656-.272-2.403.251-.78.548-1.146 1.344-1.297 2.274h5.038zm6.669-.582v-1.213c.097-.046.186-.026.273-.026.501-.005 1.003.012 1.502-.043.42-.045.831-.127 1.218-.3.782-.348 1.194-.956 1.254-1.804.024-.33.016-.66-.065-.984-.199-.798-.732-1.248-1.522-1.41-1.123-.23-2.165-.014-3.126.605-.055.034-.108.071-.161.108-.046.03-.092.062-.175.119l-.006-.737V5.1a4.653 4.653 0 011.413-.571c.934-.215 1.873-.27 2.808-.028.935.242 1.67.759 2.108 1.641.289.584.32 1.209.254 1.842a3.24 3.24 0 01-.292 1.067c-.314.663-.831 1.12-1.484 1.433-.196.094-.403.164-.606.244-.05.02-.114.014-.15.09.31.053.615.105.906.212.998.368 1.758 1.005 2.011 2.058.336 1.394.004 2.638-1.078 3.63-.63.578-1.388.907-2.227 1.045-1.066.174-2.125.142-3.169-.156a3.968 3.968 0 01-.867-.368c-.082-.047-.137-.096-.136-.204.006-.467.004-.934.006-1.402 0-.013.015-.025.032-.052l.213.145c1.204.812 2.516 1.047 3.93.714.38-.09.725-.268 1.03-.515.505-.409.775-.942.829-1.582a2.9 2.9 0 00-.078-1.006 2.053 2.053 0 00-.95-1.261c-.428-.261-.9-.39-1.39-.47-.666-.11-1.337-.09-2.007-.093-.095 0-.193.02-.298-.024zM60.395 8.554v1.49c-.102 0-.164-.072-.237-.115-.676-.405-1.402-.607-2.195-.564-1.166.064-2.007.638-2.578 1.633a3.64 3.64 0 00-.447 1.443c-.074.695-.046 1.385.172 2.055.416 1.278 1.494 2.064 2.842 2.089a3.8 3.8 0 002.197-.642c.066-.043.123-.104.223-.123v1.382c-.03.05-.1.076-.163.108-1.458.704-2.94.78-4.422.107-1.064-.483-1.763-1.329-2.127-2.422-.503-1.51-.43-3.012.281-4.44.723-1.45 1.943-2.241 3.554-2.436.846-.101 1.678-.045 2.485.247.136.049.272.1.415.188zM51.8 17.643h-1.44c-.054-.182-.075-8.815-.026-9.298.173-.043 1.129-.055 1.464-.019.033.187.037 9.059 0 9.317zM50.112 4.946c.01-.55.449-.961 1.01-.948.56.013.98.446.964.995a.982.982 0 01-1.017.95.95.95 0 01-.957-.997z" fill="#DC3E15"/></svg>