<svg width="100" height="26" viewBox="0 0 100 26" fill="none" xmlns="http://www.w3.org/2000/svg"><g clip-path="url(#clip0_13_1385)"><path fill-rule="evenodd" clip-rule="evenodd" d="M31.984 19.934l1.242-2.896c1.36 1.005 3.133 1.537 4.906 1.537 1.3 0 2.128-.503 2.128-1.271-.03-2.128-7.832-.473-7.891-5.823-.03-2.72 2.394-4.818 5.822-4.818 2.04 0 4.08.503 5.527 1.656l-1.16 2.958c-1.332-.855-2.978-1.451-4.544-1.451-1.064 0-1.774.502-1.774 1.153.03 2.098 7.892.946 7.981 6.059 0 2.778-2.365 4.729-5.734 4.729-2.483 0-4.759-.591-6.503-1.833zm47.939-3.944a3.605 3.605 0 110-3.548l3.451-1.913a7.552 7.552 0 100 7.372l-3.451-1.912z" fill="#000"/><mask id="a" style="mask-type:alpha" maskUnits="userSpaceOnUse" x="0" y="0" width="100" height="26"><path d="M0 25.32h99.998V0H0v25.32z" fill="#fff"/></mask><g mask="url(#a)" fill-rule="evenodd" clip-rule="evenodd"><path d="M45.961 21.471h4.316V.377H45.96v21.094zM85.053.377v21.094h4.316v-6.32l5.114 6.32h5.515l-6.503-7.507 6.03-7.006h-5.28l-4.876 5.824V.377h-4.316zM63.07 6.959v1.714c-.709-1.182-2.453-2.01-4.285-2.01-3.783 0-6.768 3.34-6.768 7.537 0 4.198 2.985 7.567 6.768 7.567 1.833 0 3.577-.828 4.286-2.01v1.714h4.315V6.96h-4.315zm0 9.06c-.62 1.034-1.92 1.802-3.369 1.802a3.606 3.606 0 110-7.212c1.449 0 2.75.798 3.37 1.862v3.547z" fill="#000"/><path d="M5.33 15.992a2.665 2.665 0 11-2.665-2.665h2.666v2.665zm1.333 0a2.665 2.665 0 115.331 0v6.663a2.665 2.665 0 01-5.33 0v-6.663z" fill="#E01E5A"/><path d="M9.329 5.33a2.665 2.665 0 112.665-2.665v2.666H9.329zm0 1.333a2.665 2.665 0 110 5.331H2.665a2.665 2.665 0 110-5.33H9.33z" fill="#36C5F0"/><path d="M19.99 9.329a2.665 2.665 0 112.666 2.665H19.99V9.33zm-1.333 0a2.665 2.665 0 11-5.33 0V2.665a2.665 2.665 0 115.33 0V9.33z" fill="#2EB67D"/><path d="M15.992 19.99a2.665 2.665 0 11-2.665 2.666V19.99h2.665zm0-1.333a2.665 2.665 0 010-5.33h6.663a2.665 2.665 0 110 5.33h-6.663z" fill="#ECB22E"/></g></g><defs><clipPath id="clip0_13_1385"><path fill="#fff" d="M0 0h100v25.37H0z"/></clipPath></defs></svg>