<svg width="100" height="50" viewBox="0 0 100 50" fill="none" xmlns="http://www.w3.org/2000/svg"><path fill-rule="evenodd" clip-rule="evenodd" d="M0 49.469h50.54L100 0H0v49.469" fill="url(#paint0_linear_13_1402)"/><path fill-rule="evenodd" clip-rule="evenodd" d="M59.345 9.894H49.47l.033 23.228-8.6-23.237h-8.527l-7.341 19.406c-.781-4.938-5.886-6.642-9.903-7.918-2.653-.852-5.468-2.105-5.44-3.49.023-1.137 1.507-2.191 4.456-2.034 1.979.106 3.727.266 7.204 1.946l3.419-5.959C21.6 10.222 17.215 9.203 13.62 9.2h-.02c-4.192 0-7.683 1.358-9.846 3.595-1.508 1.56-2.322 3.546-2.355 5.742-.055 3.02 1.052 5.162 3.379 6.874 1.965 1.44 4.48 2.374 6.694 3.06 2.732.846 4.964 1.583 4.936 3.15a2.321 2.321 0 01-.648 1.537c-.682.704-1.726.968-3.172.996-2.789.06-4.856-.379-8.15-2.326l-3.04 6.036c3.29 1.87 6.782 2.81 10.75 2.81l.893-.007c3.454-.063 6.257-.89 8.485-2.683.127-.102.241-.205.36-.31l-.374 1.926 8.333-.026 1.495-3.828c1.572.537 3.36.834 5.257.834 1.85 0 3.588-.282 5.13-.788l1.043 3.782 14.95.014.037-8.726h3.181c7.69 0 12.235-3.913 12.235-10.476-.002-7.31-4.421-10.493-13.827-10.493zM36.596 29.75c-1.149 0-2.226-.2-3.153-.552l3.118-9.845h.06l3.067 9.872a9.231 9.231 0 01-3.093.525h.001zm23.328-5.656h-2.17V16.16h2.17c2.892 0 5.2.963 5.2 3.916-.002 3.056-2.308 4.018-5.2 4.018" fill="#fff"/><defs><linearGradient id="paint0_linear_13_1402" x1="50" y1="0" x2="50" y2="49.47" gradientUnits="userSpaceOnUse"><stop stop-color="#00AEEF"/><stop offset=".212" stop-color="#0097DC"/><stop offset=".519" stop-color="#007CC5"/><stop offset=".792" stop-color="#006CB8"/><stop offset="1" stop-color="#0066B3"/></linearGradient></defs></svg>