<svg width="100" height="27" viewBox="0 0 100 27" fill="none" xmlns="http://www.w3.org/2000/svg"><g clip-path="url(#clip0_13_1421)"><path d="M99.98 4.569a.917.917 0 00-.037-.112c-8.828.003-17.653 0-26.478.003a.154.154 0 00-.041.086c0 6.846 0 13.689-.004 20.535.056.365.257.697.525.946.012.004.038.008.049.011.138.146.335.217.522.284.137-.008.272.052.41.037h10.956c.105-.004.213.015.313-.026.004-.015.008-.041.011-.056.004-.019.008-.06.012-.082.234-1.312.462-2.627.711-3.94l.023-.167c-1.014-.004-2.031 0-3.045-.004-.246-.007-.5 0-.745-.03-.421-.018-.846-.003-1.267-.044-.522 0-1.04-.049-1.562-.049-.41-.04-.823-.026-1.237-.044-.268-.034-.544-.019-.816-.03-.444-.049-.895-.015-1.338-.064-.47.004-.94-.037-1.409-.048a.054.054 0 00.008-.022c.156.003.309-.008.465-.011.347-.045.697-.015 1.044-.064.361 0 .72-.048 1.08-.048.321-.045.645-.019.966-.064.376 0 .745-.048 1.122-.052.309-.04.622-.018.931-.06.362.004.72-.052 1.081-.048.354-.04.716-.03 1.07-.067-.034-.138-.06-.276-.09-.414-.026-.085-.13-.067-.197-.078-.809-.116-1.614-.231-2.419-.343.052-.04.123-.022.183-.03.626-.048 1.248-.104 1.874-.149.142-.007.28-.033.421-.037-.063-.194-.1-.406-.186-.585-1.338-.205-2.676-.388-4.01-.608.347-.055.697-.081 1.043-.119l.03-.011c1.107-.116 2.218-.246 3.325-.354a518.57 518.57 0 014.21 0c.046-.008.124.015.131-.049.116-.603.228-1.207.343-1.81.16-.84.414-1.667.805-2.43a7.166 7.166 0 012.773-2.967c1.107-.649 2.389-.962 3.663-1.021a5.758 5.758 0 011.241.026c.269.063.544.138.757.32.175.142.28.35.358.56.171.495.268 1.01.35 1.527.004.21.04.444-.071.634-.104.186-.313.276-.51.332-.72.186-1.473.01-2.192.186a2.667 2.667 0 00-1.52.928c-.444.552-.679 1.237-.81 1.923-.1.611-.226 1.222-.327 1.837.708.004 1.42-.003 2.132.004.283 0 .574.156.69.425.148.343.115.73.066 1.092-.06.406-.156.808-.339 1.181-.153.317-.406.608-.753.72-.179.07-.372.055-.563.055-.626 0-1.252.008-1.878 0-.1.459-.168.928-.257 1.394-.164.906-.324 1.815-.488 2.724a1.34 1.34 0 00-.008.127c.295.015.59 0 .884.008 2.183 0 4.371-.004 6.559 0 .235.007.473-.049.678-.164.123-.045.198-.153.306-.213.104-.06.134-.182.223-.26.097-.172.198-.35.205-.552a.333.333 0 00.056-.008c-.011-6.857 0-13.714-.007-20.571z" fill="url(#paint0_linear_13_1421)" stroke="#FCD109" stroke-width=".094"/><path d="M76.897.06c.317-.101.648-.034.973-.057 6.086.004 12.171 0 18.257 0 .362-.015.678.19 1.014.295.268.108.548.193.816.309.056.022.097.07.138.112-.004.492 0 .987 0 1.483.004.13-.019.265.026.391.078.012.12.071.171.12.246.111.455.294.679.443.335.239.693.447 1.02.693a.616.616 0 01-.025.287c-.034.105-.012.216-.023.32-8.828.004-17.653 0-26.478.004-.02-.122.014-.245-.038-.361-.007-.097-.04-.224.052-.29.373-.262.768-.496 1.133-.772.228-.145.448-.295.667-.444.045-.074.03-.167.03-.25 0-.54 0-1.08.004-1.62.127-.164.347-.183.522-.265.354-.134.712-.265 1.062-.399m.022.064c-.477.182-.957.357-1.434.54-.064.011-.097.067-.13.115.003.03.007.082.007.112-.004.447 0 .895-.004 1.342.004.112-.011.223.03.324a.927.927 0 01-.16.134c-.541.35-1.063.73-1.603 1.077-.093.056-.198.13-.168.254-.018.067.015.123.086.104 1.17-.007 2.336.008 3.507-.011 1.74 0 3.477.004 5.217 0l.026-.011c.079.018.157.01.239.01 3.153 0 6.306.005 9.462 0 .991.005 1.986 0 2.981 0 1.64 0 3.284.016 4.924.008.048-.01.063-.044.044-.104-.004-.06.019-.142-.044-.179-.261-.123-.485-.313-.735-.462-.089-.075-.205-.116-.272-.216-.257-.145-.495-.324-.749-.485-.048-.03-.086-.078-.127-.119a.906.906 0 00.03-.246c-.003-.473 0-.946-.003-1.42.01-.074.007-.16-.06-.208-.447-.16-.89-.332-1.334-.496a1.524 1.524 0 00-.44-.127H77.161c-.081.004-.16.045-.242.064z" fill="#F8F3B5"/><path d="M76.897.06c.317-.101.648-.034.973-.057 6.086.004 12.171 0 18.257 0 .362-.015.678.19 1.014.295.268.108.548.193.816.309.056.022.097.07.138.112-.004.492 0 .987 0 1.483.004.13-.019.265.026.391.078.012.12.071.171.12.246.111.455.294.679.443.335.239.693.447 1.02.693a.616.616 0 01-.025.287c-.034.105-.012.216-.023.32-8.828.004-17.653 0-26.478.004-.02-.122.014-.245-.038-.361-.007-.097-.04-.224.052-.29.373-.262.768-.496 1.133-.772.228-.145.448-.295.667-.444.045-.074.03-.167.03-.25 0-.54 0-1.08.004-1.62.127-.164.347-.183.522-.265.354-.134.712-.265 1.062-.399m.022.064c-.477.182-.957.357-1.434.54-.064.011-.097.067-.13.115.003.03.007.082.007.112-.004.447 0 .895-.004 1.342.004.112-.011.223.03.324a.927.927 0 01-.16.134c-.541.35-1.063.73-1.603 1.077-.093.056-.198.13-.168.254-.018.067.015.123.086.104 1.17-.007 2.336.008 3.507-.011 1.74 0 3.477.004 5.217 0l.026-.011c.079.018.157.01.239.01 3.153 0 6.306.005 9.462 0 .991.005 1.986 0 2.981 0 1.64 0 3.284.016 4.924.008.048-.01.063-.044.044-.104-.004-.06.019-.142-.044-.179-.261-.123-.485-.313-.735-.462-.089-.075-.205-.116-.272-.216-.257-.145-.495-.324-.749-.485-.048-.03-.086-.078-.127-.119a.906.906 0 00.03-.246c-.003-.473 0-.946-.003-1.42.01-.074.007-.16-.06-.208-.447-.16-.89-.332-1.334-.496a1.524 1.524 0 00-.44-.127H77.161c-.081.004-.16.045-.242.064v0z" stroke="#F8F3B5" stroke-width=".094"/><path d="M75.362.89c.327.138.678.216 1.01.35.178.071.234.265.313.422a1.553 1.553 0 01-.265.2c-.343.232-.693.456-1.032.694-.041-.1-.026-.212-.03-.324.004-.447 0-.895.004-1.342v0zm21.67.35c.332-.13.679-.22 1.01-.35.004.474 0 .947.004 1.42a.906.906 0 01-.03.246c-.29-.201-.585-.391-.875-.589-.142-.104-.298-.182-.425-.309.078-.157.138-.347.317-.417v0z" fill="#F7B402" stroke="#F7B402" stroke-width=".094"/><path d="M81.049 1.393c.41-.097.868.269.834.697.004.421-.44.764-.846.667-.164-.056-.32-.141-.42-.287a.7.7 0 01-.057-.678c.075-.209.276-.35.489-.399v0zm10.632.235c.172-.19.444-.298.697-.23.19.055.376.178.458.364.164.32.038.753-.283.92a.72.72 0 01-.857-.145c-.22-.25-.235-.66-.015-.909v0z" fill="#BDA727" stroke="#BDA727" stroke-width=".094"/><path d="M76.42 1.863c.093-.06.186-.123.265-.201l.026.026c.026.194.007.391.014.585-.01.581.012 1.166-.014 1.748-1.085 0-2.17-.008-3.254 0-.03-.123.075-.198.168-.254.54-.346 1.062-.726 1.602-1.077a.927.927 0 00.16-.134c.34-.238.69-.462 1.033-.693v0zm20.258-.075c0-.048.012-.089.038-.13.127.127.283.205.425.31.29.197.585.387.875.588.041.041.079.09.127.12.254.16.492.339.75.484.066.1.182.141.271.216.25.15.474.34.734.462.064.037.041.12.045.179-1.084.004-2.165-.004-3.25.004-.018-.15-.007-.298-.01-.444 0-.596-.008-1.192-.005-1.789v0z" fill="#F7E62D" stroke="#F7E62D" stroke-width=".094"/><path d="M99.943 4.017c-1.084.004-2.165-.004-3.25.004-.018-.15-.007-.298-.01-.444 0-.596-.008-1.192-.004-1.789 0-.048.01-.089.037-.13.078-.157.138-.347.317-.417.331-.13.678-.22 1.01-.35.01-.075.007-.161-.06-.21-.447-.16-.89-.331-1.334-.495a1.524 1.524 0 00-.44-.127H77.162c-.083.004-.16.045-.243.064-.477.182-.957.357-1.435.54-.063.011-.096.067-.13.115.004.03.007.082.007.112.328.138.679.216 1.01.35.18.071.235.265.313.422l.026.026c.027.194.008.391.015.585-.01.581.012 1.166-.014 1.748-1.085 0-2.17-.008-3.254 0-.019.067.015.123.086.104 1.17-.007 2.336.008 3.507-.011 1.74 0 3.477.004 5.217 0l.026-.011c.078.018.157.01.239.01 3.153 0 6.305.005 9.462 0 .991.005 1.986 0 2.981 0 1.64 0 3.284.016 4.923.008.049-.01.064-.044.045-.104v0zM80.56 1.792c.075-.209.276-.35.489-.399.41-.097.868.269.834.697.004.421-.44.764-.846.667-.164-.056-.32-.141-.42-.287a.7.7 0 01-.057-.678zm11.121-.164c.172-.19.444-.298.697-.23.19.055.376.178.458.364.164.32.038.753-.283.92a.72.72 0 01-.857-.145c-.22-.25-.235-.66-.015-.909z" fill="url(#paint1_radial_13_1421)" stroke="#FCD109" stroke-width=".094"/><path d="M92.63 5.655c.053.011-.27-.311-.207-.326.06.007.285-.168.559-.025.273.143.205.478.174.602a.674.674 0 01-.205.317c-.041.034-.133.086-.19.082.034-.182-.074-.212-.081-.399l-.05-.251z" fill="url(#paint2_linear_13_1421)" stroke="#FCD109" stroke-width=".094"/><path d="M80.718 5.857c-.008.186-.116.216-.083.399-.055.003-.147-.049-.188-.082a.674.674 0 01-.206-.317c-.03-.124-.099-.46.175-.603.273-.143.499.033.559.025.063.015-.26.337-.209.326l-.049.252z" fill="url(#paint3_linear_13_1421)" stroke="#FCD109" stroke-width=".094"/><path d="M92.143 8.042c.056-.049.093-.049.168-.049-.447.97-.97 1.938-1.754 2.693a2.637 2.637 0 01-.265.208l-.265.19a9.65 9.65 0 00-.254.182c-.212.115-.399.275-.634.346a5.95 5.95 0 01-1.356.44c-.183.03-.37.075-.555.078-.231.067-.477.019-.712.034-.13.022-.246-.052-.373-.037a5.381 5.381 0 01-.658-.134c-1.708-.534-3.385-1.838-3.874-3.602a1.978 1.978 0 01-.033-.36c.052.104.106.208.162.31.695 1.516 2.074 2.708 3.703 3.068.132.06.275.04.402.091.115 0 .227-.003.34.034.383.007.767.004 1.15.004.053.003.101-.023.154-.034.64-.022 1.266-.196 1.85-.46.117-.054.231-.11.344-.17a3.75 3.75 0 00.559-.359 6.174 6.174 0 001.691-2.069c.077-.146.148-.282.21-.404z" fill="#BDA727" stroke="#BDA727" stroke-width=".094"/><path d="M91.536 11.355c1.106-.648 2.388-.962 3.663-1.021a5.751 5.751 0 011.241.026c.268.063.544.138.757.32-.108.008-.213-.04-.32-.055-.306-.06-.623-.038-.933-.045-.898 0-1.803.07-2.672.317-.454.137-.909.298-1.323.536a6.604 6.604 0 00-1.882 1.543c-.931 1.07-1.48 2.426-1.744 3.809-.126.741-.272 1.48-.387 2.225-.187.018-.377.007-.563.007-.82-.003-1.64-.007-2.46-.015-.175.008-.346-.033-.522-.022-1.49.007-2.981-.004-4.472-.004l.03-.011c1.107-.116 2.218-.246 3.324-.354a527.83 527.83 0 014.212 0c.044-.007.123.015.13-.049.116-.603.227-1.207.343-1.81.16-.84.414-1.666.805-2.43a7.167 7.167 0 012.773-2.967z" fill="#0D69B3" stroke="#0D69B3" stroke-width=".094"/><path d="M93.272 10.897c.869-.246 1.774-.317 2.672-.317.31.007.627-.015.932.045.108.014.213.063.32.056.176.141.28.35.359.559.171.495.268 1.01.35 1.527.004.21.04.444-.071.634-.104.186-.313.276-.51.332-.72.186-1.473.01-2.192.186a2.666 2.666 0 00-1.52.928c-.444.552-.679 1.237-.81 1.923-.1.611-.227 1.222-.327 1.837-.045.138-.07.287-.097.433.704.01 1.409 0 2.113.007.268-.007.537.008.805-.011.15.343.116.73.067 1.092-.06.406-.156.808-.339 1.181-.153.317-.406.608-.753.72-.179.07-.373.055-.563.055-.626 0-1.252.008-1.878 0-.1.459-.168.928-.257 1.394-.164.906-.324 1.815-.488 2.724-.004.03-.008.094-.008.127v.004c-1.628 0-3.253.004-4.882 0l.012-.056.01-.082c.004.03.008.086.012.112.1.011.283.063.31-.082.253-1.372.487-2.75.748-4.122a.787.787 0 00-.309-.004c-.015.052-.03.105-.048.157l.022-.168c-1.014-.004-2.031 0-3.045-.004-.246-.007-.5 0-.745-.03-.421-.018-.846-.003-1.267-.044-.522 0-1.04-.049-1.562-.049-.41-.04-.823-.026-1.237-.044-.268-.034-.544-.019-.816-.03-.444-.049-.895-.015-1.338-.064-.47.004-.94-.037-1.409-.048a.053.053 0 00.008-.022c.156.003.309-.008.466-.012.346-.044.696-.014 1.043-.063.362 0 .72-.048 1.08-.048.321-.045.645-.019.966-.064.376 0 .745-.048 1.122-.052.31-.04.622-.018.931-.06.362.004.72-.052 1.081-.048.354-.041.716-.03 1.07-.067-.034-.138-.06-.276-.09-.414-.026-.085-.13-.067-.197-.078-.809-.116-1.614-.231-2.419-.343.052-.041.123-.022.183-.03.626-.048 1.248-.104 1.874-.149.142-.007.28-.033.422-.037-.064-.194-.101-.406-.187-.585-1.338-.205-2.676-.388-4.01-.608.347-.055.697-.082 1.044-.119 1.49 0 2.981.011 4.472.004.175-.011.346.03.522.022.82.008 1.64.012 2.46.015.186 0 .376.011.562-.007.115-.746.26-1.484.387-2.225.265-1.383.813-2.74 1.745-3.809a6.604 6.604 0 011.882-1.543c.413-.238.868-.399 1.322-.536z" fill="#107BD4" stroke="#107BD4" stroke-width=".094"/><path d="M92.475 18.607c.708.004 1.42-.003 2.132.004.283 0 .573.157.69.425-.27.018-.538.004-.806.011-.704-.007-1.409.004-2.113-.007.026-.146.052-.295.097-.433v0zM86.978 22.1a.787.787 0 01.31.004c-.262 1.371-.496 2.75-.75 4.122-.026.145-.209.093-.31.082l-.01-.112c.234-1.312.462-2.627.712-3.94.018-.051.033-.104.048-.156z" fill="#0D69B3" stroke="#0D69B3" stroke-width=".094"/><path d="M92.8 5.76a.396.396 0 01-.033-.187l-.03.004c-.044-.164-.182-.321-.361-.328-.134-.012-.302-.008-.38.119-.15.201-.078.458-.086.686 0 .014.004.04.004.055 0 .153-.019.302-.045.451a.32.32 0 00-.033.146 3.43 3.43 0 01-.362 1.013.375.375 0 00-.07.146 5.033 5.033 0 01-.385.551.475.475 0 00-.06.064c-.096.119-.2.22-.309.324-.026.015-.044.033-.067.048a2.428 2.428 0 01-.42.332c-.02.011-.038.026-.06.041-.954.63-2.113.89-3.243.902a6.056 6.056 0 01-2.787-.589c-.015-.007-.052-.022-.067-.03-.146-.078-.295-.145-.429-.242-.03-.015-.06-.034-.093-.048a2.849 2.849 0 01-.391-.276c-.041-.037-.086-.067-.13-.1a3.15 3.15 0 01-.388-.355c-.03-.033-.06-.063-.09-.093a3.715 3.715 0 01-.89-1.494c-.16-.444-.138-.928-.157-1.394-.134-.205-.417-.32-.641-.194-.093.067-.104.19-.175.276-.116 1.23.41 2.456 1.248 3.343 0 .03.015.048.041.06.15.137.295.279.444.413a.595.595 0 00.09.074c.148.123.309.235.465.35.03.023.06.042.093.06.205.12.399.261.619.343.015.011.04.03.056.037a6.72 6.72 0 002.255.645c.085 0 .17.008.257.026.372.023.745.011 1.118.004 1.151-.1 2.34-.38 3.302-1.058l.01.015c.03-.027.057-.049.087-.071a9.893 9.893 0 00.555-.444c.164-.179.354-.343.492-.548l.022.012.041-.075c.127-.171.242-.35.354-.53.008-.01.026-.029.034-.04l-.015-.015.048-.06c.205-.417.388-.853.451-1.315a.064.064 0 00.041-.06c.004-.149.056-.29.041-.44a2.51 2.51 0 00.03-.555v0z" fill="#fff" stroke="#fff" stroke-width=".094"/><path d="M80.336 5.633c.302.095.996-.143 1.192.075m-1.019.844c.29-.1.91-.339 1.168-.198m-.87 1.118c.14.045.416-.2.553-.273.204-.107.413-.19.64-.224m-.745 1.466c.144-.205.317-.376.526-.521.206-.145.772-.53 1.014-.399m-1.118 1.615c.164-.13.23-.36.403-.497.208-.166.527-.195.74-.298m-.44 1.31c.048-.36.414-.794.763-.763m-.224 1.267c.185-.018.341-.431.466-.571.187-.21.38-.274.628-.348m-.025 1.366c-.012-.26.257-1.008.571-.969m.224 1.218c-.013-.308.146-1.235.522-1.267m.298 1.764c-.072-.431-.067-1.055.273-1.367m.745 1.466c-.037-.36-.394-1.085 0-1.366m1.094 1.117c-.17-.197-.27-.976-.2-1.192m1.243 1.019c-.131-.239-.294-.463-.344-.74-.03-.166.022-.401-.004-.527m1.218.894c-.285-.186-.365-.872-.274-1.168m1.118.795c-.202-.435-.419-.772-.422-1.267m1.242.472c-.315-.212-.717-.597-.67-1.018m1.54.347c-.479-.106-1.053-.534-1.342-.919m1.74.1c-.346-.075-1.487-.52-1.417-.97m1.789.1c-.481-.176-1.181-.335-1.565-.67m1.813-.125c-.303.026-.737-.12-1.045-.174-.342-.059-.659-.174-.992-.249m1.74-.347c-.585.035-1.134-.165-1.665-.348" stroke="#D1D1D1" stroke-width="2"/><path d="M18.087 7.35c.54-.08 1.162-.132 1.62.204.286.214.388.601.367.948.02.57-.244 1.182-.753 1.477-.449.245-.989.265-1.488.214-.336-.04-.673-.224-.846-.53-.387-.886.092-2.14 1.1-2.312zm-16.16.643c.03-.306.306-.581.622-.571 2.354 0 4.697.01 7.04 0 .255-.02.53.092.653.316.173.305.02.642 0 .958-.072.428-.051.998-.55 1.161-1.712.051-3.424 0-5.136.02-.163 1.08-.316 2.15-.479 3.22 0 .041.01.133.01.174 1.254-.01 2.507 0 3.76-.01.347-.021.713.275.683.641-.03.377-.112.744-.163 1.121a.663.663 0 01-.51.54c-1.396.03-2.812-.03-4.208.03-.224 1.54-.489 3.078-.723 4.617-.03.305-.276.57-.581.58-.58.01-1.162.01-1.743 0-.377.01-.682-.407-.58-.764.621-4.014 1.263-8.019 1.905-12.033v0zm10.353-.55c.53-.041 1.07-.01 1.6-.021.325-.02.651.234.682.57 0 .265-.071.53-.102.795-.428 2.731-.866 5.462-1.294 8.193-.061.438-.173.906-.04 1.355.152.448.835.255.998.723.102.377-.01.775-.041 1.162-.03.51-.611.621-1.009.733-.866.163-1.915.041-2.537-.672-.448-.52-.479-1.253-.387-1.905.54-3.465 1.08-6.93 1.63-10.404a.616.616 0 01.5-.53v0zm20.225.55c.031-.306.306-.571.612-.571h1.549c.387-.01.703.408.611.774-.357 2.262-.723 4.524-1.08 6.786.54-.081 1.151-.183 1.528-.621a9.476 9.476 0 001.539-2.405c.132-.336.204-.825.642-.886.58-.02 1.172-.01 1.752 0 .398-.01.693.438.561.805-.153.54-.408 1.039-.672 1.518-.591.958-1.244 1.905-2.1 2.66.377 1.13.856 2.23 1.274 3.341.122.367.418.795.143 1.152-.316.428-.907.214-1.345.265-.459-.051-1.121.183-1.376-.337-.479-1.11-.876-2.251-1.365-3.362-.285.01-.581.02-.866-.01l-.082.163a313.599 313.599 0 01-.479 3.057c-.06.244-.255.458-.52.479-.54.02-1.09.01-1.64.01a.635.635 0 01-.55-.357c-.102-.204-.041-.438-.01-.662a4742.71 4742.71 0 001.874-11.8v0zm28.317 1.11a.634.634 0 01.632-.469c.407.01.825-.01 1.243.01.336.01.6.347.56.673-.061.58-.204 1.162-.244 1.742.397 0 .805-.01 1.202 0 .357 0 .652.367.59.714-.05.316-.121.621-.172.937a.663.663 0 01-.53.52c-.49.03-.968-.02-1.447.03-.204 1.366-.428 2.731-.642 4.097-.03.315-.05.672.133.947.275.336.753.214 1.14.255a.67.67 0 01.449.734c-.051.346-.061.692-.143 1.029-.122.377-.56.448-.896.54-.928.244-1.997.244-2.823-.296-.764-.52-.886-1.528-.805-2.384.214-1.65.55-3.291.734-4.952-.285.01-.632.05-.846-.204-.244-.255-.122-.632-.081-.948.06-.336.05-.774.418-.957.295-.113.631-.031.947-.072.194-.652.377-1.304.58-1.946v0zm-5.757 3.302c.642-.642 1.416-1.172 2.303-1.437.387-.173.886.153.876.58-.071.561-.204 1.111-.295 1.661a.649.649 0 01-.55.54c-1 .174-1.866.775-2.558 1.488-.174.214-.428.418-.459.713-.214 1.427-.438 2.853-.662 4.28-.03.305-.296.601-.611.58h-1.55c-.356.021-.672-.335-.631-.692.448-2.823.897-5.635 1.335-8.457.02-.286.224-.56.52-.591.376-.02.753-.01 1.14-.01.306 0 .592.275.592.59 0 .439-.041.887-.051 1.335.244-.152.397-.397.6-.58v0zM16.977 11.11c.55-.112 1.12-.02 1.67-.05.317-.041.653.162.704.479.04.285-.04.56-.071.835-.418 2.619-.836 5.237-1.244 7.856-.03.296-.274.591-.59.58-.55 0-1.1.011-1.661-.01-.347-.04-.601-.437-.51-.774.438-2.72.856-5.43 1.294-8.151.02-.296.102-.642.408-.765v0zm32.973.133c-1.519-.285-3.067-.49-4.606-.336-1.375.173-2.761.794-3.607 1.925-1.172 1.488-1.57 3.485-1.304 5.34.142.886.53 1.783 1.253 2.333.673.52 1.58.591 2.395.459 1.14-.225 2.109-.958 2.904-1.773.04.346-.041.693-.02 1.029.02.316.305.611.62.59h1.04c.306 0 .56-.284.581-.58.438-2.761.876-5.513 1.304-8.264.061-.346-.214-.682-.56-.723v0zm-2.863 4.8c-.408.763-.979 1.456-1.62 2.047-.367.306-.836.622-1.335.52-.49-.102-.724-.611-.836-1.05a4.481 4.481 0 01.622-3.372 2.179 2.179 0 011.273-.948c.744-.183 1.529-.092 2.252.112l.041.04c-.092.887-.265 1.764-.397 2.65v0zm-17.139-1.53c-.01-1.018-.285-2.088-.998-2.852-.49-.54-1.223-.815-1.936-.805-1.183-.041-2.293.54-3.16 1.314-.193.153-.325.377-.54.5 0-.337.031-.673.021-1.02.01-.315-.285-.59-.59-.59h-1.04c-.326 0-.591.285-.612.6-.642 4.076-1.294 8.152-1.936 12.228-.091.377.235.764.622.754.57-.01 1.151.04 1.712-.04.448-.123.438-.643.51-1.02.162-.896.274-1.793.376-2.7 2.008.387 4.341.122 5.839-1.396 1.223-1.335 1.793-3.179 1.732-4.972v0zm-2.853 1.03c-.061.937-.397 1.885-1.05 2.567-.845.806-2.13.693-3.168.418a.694.694 0 01-.061-.122c.163-.886.244-1.783.448-2.66.57-.937 1.263-1.884 2.252-2.404.367-.173.866-.132 1.13.204.449.56.49 1.314.449 1.997v0z" fill="#107BD4" stroke="#107BD4" stroke-width=".101"/></g><defs><linearGradient id="paint0_linear_13_1421" x1="86.704" y1="4.457" x2="86.704" y2="26.361" gradientUnits="userSpaceOnUse"><stop stop-color="#F7E830"/><stop offset="1" stop-color="#FDCB06"/></linearGradient><linearGradient id="paint2_linear_13_1421" x1="92.799" y1="5.247" x2="92.805" y2="6.285" gradientUnits="userSpaceOnUse"><stop stop-color="#FADA1C"/><stop offset="1" stop-color="#FDCB06"/></linearGradient><linearGradient id="paint3_linear_13_1421" x1="80.598" y1="5.198" x2="80.592" y2="6.235" gradientUnits="userSpaceOnUse"><stop stop-color="#FADA1C"/><stop offset="1" stop-color="#FDCB06"/></linearGradient><radialGradient id="paint1_radial_13_1421" cx="0" cy="0" r="1" gradientUnits="userSpaceOnUse" gradientTransform="translate(86.59 14.447) scale(17.817)"><stop offset=".596" stop-color="#F29405"/><stop offset=".736" stop-color="#F7D01E"/><stop offset="1" stop-color="#FDCB06"/></radialGradient><clipPath id="clip0_13_1421"><path fill="#fff" d="M0 0h100v26.363H0z"/></clipPath></defs></svg>