<svg width="100" height="80" viewBox="0 0 100 80" fill="none" xmlns="http://www.w3.org/2000/svg"><path fill-rule="evenodd" clip-rule="evenodd" d="M62.035 48.491c-5.79 4.28-14.21 6.562-21.474 6.562-10.175 0-19.298-3.755-26.245-10-.527-.492-.07-1.158.596-.772 7.474 4.35 16.702 6.947 26.246 6.947 6.42 0 13.509-1.333 20.035-4.105.982-.386 1.79.666.842 1.368z" fill="#F90"/><path fill-rule="evenodd" clip-rule="evenodd" d="M64.456 45.72c-.737-.948-4.912-.457-6.772-.211-.561.07-.666-.421-.14-.772 3.333-2.351 8.772-1.65 9.403-.877.632.772-.175 6.245-3.298 8.842-.491.386-.947.175-.737-.351.702-1.755 2.28-5.65 1.544-6.632z" fill="#F90"/><path fill-rule="evenodd" clip-rule="evenodd" d="M57.79 28.246v-2.281c0-.351.245-.561.56-.561h10.176c.316 0 .597.245.597.56v1.93c0 .317-.28.738-.772 1.44l-5.263 7.508c1.965-.035 4.035.246 5.79 1.228.385.21.49.562.525.877v2.421c0 .351-.35.737-.736.527-3.123-1.65-7.299-1.825-10.737.035-.351.175-.737-.176-.737-.526v-2.316c0-.351 0-.983.386-1.544l6.105-8.737h-5.298c-.316 0-.597-.246-.597-.561zm-37.088 14.14h-3.088c-.28-.035-.526-.246-.561-.526V26c0-.316.28-.561.596-.561h2.877c.316 0 .527.245.562.526v2.07h.07c.737-2 2.175-2.947 4.07-2.947 1.93 0 3.158.947 4 2.947.737-2 2.456-2.947 4.28-2.947 1.299 0 2.703.526 3.58 1.754.982 1.333.772 3.263.772 4.983V41.86c0 .315-.281.561-.597.561h-3.052c-.316-.035-.562-.28-.562-.561v-8.421c0-.667.07-2.351-.07-2.983-.246-1.052-.912-1.368-1.825-1.368-.737 0-1.544.491-1.86 1.298-.315.807-.28 2.14-.28 3.053v8.42c0 .316-.28.562-.597.562H25.93c-.316-.035-.562-.28-.562-.561v-8.421c0-1.755.281-4.386-1.894-4.386-2.21 0-2.14 2.526-2.14 4.386v8.42a.616.616 0 01-.632.527zm57.193-17.298c4.596 0 7.088 3.93 7.088 8.947 0 4.842-2.737 8.702-7.088 8.702-4.492 0-6.948-3.93-6.948-8.842-.035-4.948 2.456-8.807 6.948-8.807zm0 3.263c-2.281 0-2.421 3.123-2.421 5.053 0 1.93-.035 6.07 2.386 6.07 2.386 0 2.526-3.334 2.526-5.369 0-1.333-.07-2.947-.456-4.21-.351-1.123-1.053-1.544-2.035-1.544zm13.017 14.035h-3.087c-.316-.035-.562-.28-.562-.561V25.93a.606.606 0 01.597-.526h2.877c.28 0 .491.21.561.456v2.42h.07c.878-2.175 2.07-3.192 4.21-3.192 1.37 0 2.738.49 3.615 1.86.807 1.262.807 3.403.807 4.947v10c-.035.28-.28.491-.597.491h-3.087c-.28-.035-.526-.246-.562-.491v-8.632c0-1.754.21-4.28-1.93-4.28-.736 0-1.438.49-1.789 1.263-.421.982-.491 1.93-.491 3.017v8.562a.643.643 0 01-.632.561zm-41.228-7.579c0 1.193.035 2.21-.561 3.298-.491.878-1.263 1.404-2.14 1.404-1.194 0-1.895-.913-1.895-2.246 0-2.631 2.35-3.123 4.596-3.123v.667zm3.123 7.544a.634.634 0 01-.737.07c-1.017-.842-1.228-1.263-1.79-2.07-1.684 1.72-2.912 2.245-5.087 2.245-2.596 0-4.632-1.613-4.632-4.806 0-2.527 1.369-4.211 3.299-5.053 1.684-.737 4.035-.877 5.824-1.088v-.386c0-.737.07-1.614-.386-2.245-.386-.562-1.087-.808-1.72-.808-1.192 0-2.245.597-2.49 1.86-.07.28-.246.562-.527.562l-2.982-.316c-.246-.07-.526-.246-.456-.632.702-3.649 3.965-4.737 6.912-4.737 1.509 0 3.474.386 4.667 1.544 1.509 1.404 1.368 3.299 1.368 5.334v4.807c0 1.438.597 2.07 1.158 2.877.21.28.246.631 0 .807-.667.526-1.79 1.509-2.421 2.035zm-43.65-7.544c0 1.193.036 2.21-.56 3.298-.492.878-1.264 1.404-2.14 1.404-1.194 0-1.896-.913-1.896-2.246 0-2.631 2.351-3.123 4.597-3.123v.667zm3.089 7.544a.634.634 0 01-.737.07c-1.018-.842-1.228-1.263-1.79-2.07-1.684 1.72-2.912 2.245-5.087 2.245C2.035 42.596 0 40.983 0 37.79c0-2.527 1.368-4.211 3.298-5.053 1.684-.737 4.035-.877 5.825-1.088v-.386c0-.737.07-1.614-.386-2.245-.386-.562-1.088-.808-1.72-.808-1.192 0-2.245.597-2.49 1.86-.07.28-.246.562-.527.562l-2.982-.316c-.246-.07-.527-.246-.457-.632.702-3.649 3.965-4.737 6.913-4.737 1.508 0 3.473.386 4.666 1.544 1.51 1.404 1.369 3.299 1.369 5.334v4.807c0 1.438.596 2.07 1.158 2.877.21.28.245.631 0 .807-.667.526-1.79 1.509-2.421 2.035z" fill="#000"/></svg>